<?xml version="1.0" encoding="UTF-8"?>
<svg xmlns="http://www.w3.org/2000/svg" xmlns:xlink="http://www.w3.org/1999/xlink" width="327pt" height="226pt" viewBox="0 0 327 226" version="1.1">
<defs>
<clipPath id="clip1">
  <path d="M 62.679688 9 L 64 9 L 64 178.875 L 62.679688 178.875 Z M 62.679688 9 "/>
</clipPath>
<clipPath id="clip2">
  <path d="M 143 9 L 145 9 L 145 178.875 L 143 178.875 Z M 143 9 "/>
</clipPath>
<clipPath id="clip3">
  <path d="M 224 9 L 227 9 L 227 178.875 L 224 178.875 Z M 224 9 "/>
</clipPath>
<clipPath id="clip4">
  <path d="M 306 9 L 306.804688 9 L 306.804688 178.875 L 306 178.875 Z M 306 9 "/>
</clipPath>
<clipPath id="clip5">
  <path d="M 62.679688 175 L 306.804688 175 L 306.804688 178 L 62.679688 178 Z M 62.679688 175 "/>
</clipPath>
<clipPath id="clip6">
  <path d="M 62.679688 139 L 306.804688 139 L 306.804688 141 L 62.679688 141 Z M 62.679688 139 "/>
</clipPath>
<clipPath id="clip7">
  <path d="M 62.679688 102 L 306.804688 102 L 306.804688 105 L 62.679688 105 Z M 62.679688 102 "/>
</clipPath>
<clipPath id="clip8">
  <path d="M 62.679688 66 L 306.804688 66 L 306.804688 68 L 62.679688 68 Z M 62.679688 66 "/>
</clipPath>
<clipPath id="clip9">
  <path d="M 62.679688 29 L 306.804688 29 L 306.804688 32 L 62.679688 32 Z M 62.679688 29 "/>
</clipPath>
<clipPath id="clip10">
  <path d="M 62.679688 15 L 115 15 L 115 170 L 62.679688 170 Z M 62.679688 15 "/>
</clipPath>
<clipPath id="clip11">
  <path d="M 62.679688 38 L 158 38 L 158 173 L 62.679688 173 Z M 62.679688 38 "/>
</clipPath>
<filter id="alpha" filterUnits="objectBoundingBox" x="0%" y="0%" width="100%" height="100%">
  <feColorMatrix type="matrix" in="SourceGraphic" values="0 0 0 0 1 0 0 0 0 1 0 0 0 0 1 0 0 0 1 0"/>
</filter>
<mask id="mask0">
  <g filter="url(#alpha)">
<rect x="0" y="0" width="327" height="226" style="fill:rgb(0%,0%,0%);fill-opacity:0.8;stroke:none;"/>
  </g>
</mask>
<clipPath id="clip12">
  <rect width="327" height="226"/>
</clipPath>
<g id="surface6" clip-path="url(#clip12)">
<path style="fill-rule:nonzero;fill:rgb(100%,100%,100%);fill-opacity:1;stroke-width:1;stroke-linecap:butt;stroke-linejoin:miter;stroke:rgb(80%,80%,80%);stroke-opacity:1;stroke-miterlimit:4;" d="M 128.175 73.9125 L 238.44375 73.9125 C 239.778125 73.9125 240.44375 73.246875 240.44375 71.9125 L 240.44375 14.2 C 240.44375 12.865625 239.778125 12.2 238.44375 12.2 L 128.175 12.2 C 126.84375 12.2 126.175 12.865625 126.175 14.2 L 126.175 71.9125 C 126.175 73.246875 126.84375 73.9125 128.175 73.9125 Z M 128.175 73.9125 " transform="matrix(1.25,0,0,1.25,0,0)"/>
</g>
</defs>
<g id="surface1">
<path style=" stroke:none;fill-rule:nonzero;fill:rgb(100%,100%,100%);fill-opacity:1;" d="M 62.679688 178.875 L 306.804688 178.875 L 306.804688 9 L 62.679688 9 Z M 62.679688 178.875 "/>
<g clip-path="url(#clip1)" clip-rule="nonzero">
<path style="fill:none;stroke-width:0.8;stroke-linecap:square;stroke-linejoin:round;stroke:rgb(69.019608%,69.019608%,69.019608%);stroke-opacity:1;stroke-miterlimit:4;" d="M 50.14375 143.1 L 50.14375 7.2 " transform="matrix(1.25,0,0,1.25,0,0)"/>
</g>
<path style="fill:none;stroke-width:0.8;stroke-linecap:butt;stroke-linejoin:round;stroke:rgb(0%,0%,0%);stroke-opacity:1;stroke-miterlimit:4;" d="M 0 0 L 0 3.5 " transform="matrix(1.25,0,0,1.25,62.679688,178.875)"/>
<path style=" stroke:none;fill-rule:nonzero;fill:rgb(0%,0%,0%);fill-opacity:1;" d="M 49.542969 195.992188 L 51.554688 195.992188 L 51.554688 189.039062 L 49.367188 189.476562 L 49.367188 188.355469 L 51.546875 187.914062 L 52.777344 187.914062 L 52.777344 195.992188 L 54.789062 195.992188 L 54.789062 197.027344 L 49.542969 197.027344 Z M 49.542969 195.992188 "/>
<path style=" stroke:none;fill-rule:nonzero;fill:rgb(0%,0%,0%);fill-opacity:1;" d="M 59.917969 188.726562 C 59.285156 188.726562 58.804688 189.039062 58.484375 189.664062 C 58.167969 190.289062 58.007812 191.226562 58.007812 192.480469 C 58.007812 193.730469 58.167969 194.667969 58.484375 195.292969 C 58.804688 195.917969 59.285156 196.230469 59.917969 196.230469 C 60.558594 196.230469 61.035156 195.917969 61.355469 195.292969 C 61.675781 194.667969 61.835938 193.730469 61.835938 192.480469 C 61.835938 191.226562 61.675781 190.289062 61.355469 189.664062 C 61.035156 189.039062 60.558594 188.726562 59.917969 188.726562 Z M 59.917969 187.75 C 60.941406 187.75 61.71875 188.15625 62.257812 188.964844 C 62.796875 189.769531 63.066406 190.941406 63.066406 192.480469 C 63.066406 194.015625 62.796875 195.1875 62.257812 195.996094 C 61.71875 196.800781 60.941406 197.207031 59.917969 197.207031 C 58.898438 197.207031 58.117188 196.800781 57.578125 195.996094 C 57.039062 195.1875 56.769531 194.015625 56.769531 192.480469 C 56.769531 190.941406 57.039062 189.769531 57.578125 188.964844 C 58.117188 188.15625 58.898438 187.75 59.917969 187.75 Z M 59.917969 187.75 "/>
<path style=" stroke:none;fill-rule:nonzero;fill:rgb(0%,0%,0%);fill-opacity:1;" d="M 64.945312 189.136719 L 70.421875 189.136719 L 70.421875 189.863281 L 64.945312 189.863281 Z M 64.945312 189.136719 "/>
<path style=" stroke:none;fill-rule:nonzero;fill:rgb(0%,0%,0%);fill-opacity:1;" d="M 73.027344 191.515625 L 76.039062 191.515625 L 76.039062 192.242188 L 71.992188 192.242188 L 71.992188 191.515625 C 72.316406 191.175781 72.765625 190.722656 73.328125 190.152344 C 73.894531 189.582031 74.25 189.210938 74.394531 189.046875 C 74.671875 188.734375 74.863281 188.472656 74.972656 188.257812 C 75.082031 188.042969 75.140625 187.832031 75.140625 187.625 C 75.140625 187.285156 75.019531 187.007812 74.78125 186.796875 C 74.542969 186.582031 74.234375 186.472656 73.851562 186.472656 C 73.582031 186.472656 73.296875 186.519531 72.996094 186.613281 C 72.695312 186.707031 72.375 186.851562 72.03125 187.042969 L 72.03125 186.171875 C 72.378906 186.03125 72.703125 185.925781 73.007812 185.855469 C 73.308594 185.785156 73.585938 185.75 73.835938 185.75 C 74.496094 185.75 75.023438 185.914062 75.417969 186.246094 C 75.808594 186.574219 76.003906 187.015625 76.003906 187.566406 C 76.003906 187.832031 75.957031 188.078125 75.859375 188.3125 C 75.761719 188.546875 75.582031 188.824219 75.320312 189.144531 C 75.25 189.226562 75.023438 189.464844 74.644531 189.859375 C 74.261719 190.253906 73.722656 190.808594 73.027344 191.515625 Z M 73.027344 191.515625 "/>
<g clip-path="url(#clip2)" clip-rule="nonzero">
<path style="fill:none;stroke-width:0.8;stroke-linecap:square;stroke-linejoin:round;stroke:rgb(69.019608%,69.019608%,69.019608%);stroke-opacity:1;stroke-miterlimit:4;" d="M 115.24375 143.1 L 115.24375 7.2 " transform="matrix(1.25,0,0,1.25,0,0)"/>
</g>
<path style="fill:none;stroke-width:0.8;stroke-linecap:butt;stroke-linejoin:round;stroke:rgb(0%,0%,0%);stroke-opacity:1;stroke-miterlimit:4;" d="M 0 0 L 0 3.5 " transform="matrix(1.25,0,0,1.25,144.054688,178.875)"/>
<path style=" stroke:none;fill-rule:nonzero;fill:rgb(0%,0%,0%);fill-opacity:1;" d="M 130.917969 196 L 132.929688 196 L 132.929688 189.046875 L 130.742188 189.488281 L 130.742188 188.363281 L 132.921875 187.925781 L 134.152344 187.925781 L 134.152344 196 L 136.164062 196 L 136.164062 197.039062 L 130.917969 197.039062 Z M 130.917969 196 "/>
<path style=" stroke:none;fill-rule:nonzero;fill:rgb(0%,0%,0%);fill-opacity:1;" d="M 141.292969 188.738281 C 140.660156 188.738281 140.179688 189.050781 139.859375 189.675781 C 139.542969 190.296875 139.382812 191.238281 139.382812 192.492188 C 139.382812 193.738281 139.542969 194.675781 139.859375 195.300781 C 140.179688 195.925781 140.660156 196.238281 141.292969 196.238281 C 141.933594 196.238281 142.410156 195.925781 142.730469 195.300781 C 143.050781 194.675781 143.210938 193.738281 143.210938 192.492188 C 143.210938 191.238281 143.050781 190.296875 142.730469 189.675781 C 142.410156 189.050781 141.933594 188.738281 141.292969 188.738281 Z M 141.292969 187.761719 C 142.316406 187.761719 143.09375 188.164062 143.632812 188.972656 C 144.171875 189.78125 144.441406 190.953125 144.441406 192.492188 C 144.441406 194.023438 144.171875 195.195312 143.632812 196.003906 C 143.09375 196.8125 142.316406 197.214844 141.292969 197.214844 C 140.273438 197.214844 139.492188 196.8125 138.953125 196.003906 C 138.414062 195.195312 138.144531 194.023438 138.144531 192.492188 C 138.144531 190.953125 138.414062 189.78125 138.953125 188.972656 C 139.492188 188.164062 140.273438 187.761719 141.292969 187.761719 Z M 141.292969 187.761719 "/>
<path style=" stroke:none;fill-rule:nonzero;fill:rgb(0%,0%,0%);fill-opacity:1;" d="M 146.320312 189.144531 L 151.796875 189.144531 L 151.796875 189.871094 L 146.320312 189.871094 Z M 146.320312 189.144531 "/>
<path style=" stroke:none;fill-rule:nonzero;fill:rgb(0%,0%,0%);fill-opacity:1;" d="M 153.808594 191.527344 L 155.21875 191.527344 L 155.21875 186.660156 L 153.683594 186.96875 L 153.683594 186.179688 L 155.210938 185.875 L 156.074219 185.875 L 156.074219 191.527344 L 157.484375 191.527344 L 157.484375 192.253906 L 153.808594 192.253906 Z M 153.808594 191.527344 "/>
<g clip-path="url(#clip3)" clip-rule="nonzero">
<path style="fill:none;stroke-width:0.8;stroke-linecap:square;stroke-linejoin:round;stroke:rgb(69.019608%,69.019608%,69.019608%);stroke-opacity:1;stroke-miterlimit:4;" d="M 180.34375 143.1 L 180.34375 7.2 " transform="matrix(1.25,0,0,1.25,0,0)"/>
</g>
<path style="fill:none;stroke-width:0.8;stroke-linecap:butt;stroke-linejoin:round;stroke:rgb(0%,0%,0%);stroke-opacity:1;stroke-miterlimit:4;" d="M 0 0 L 0 3.5 " transform="matrix(1.25,0,0,1.25,225.429688,178.875)"/>
<path style=" stroke:none;fill-rule:nonzero;fill:rgb(0%,0%,0%);fill-opacity:1;" d="M 215.980469 195.992188 L 217.992188 195.992188 L 217.992188 189.039062 L 215.804688 189.476562 L 215.804688 188.355469 L 217.984375 187.914062 L 219.214844 187.914062 L 219.214844 195.992188 L 221.226562 195.992188 L 221.226562 197.027344 L 215.980469 197.027344 Z M 215.980469 195.992188 "/>
<path style=" stroke:none;fill-rule:nonzero;fill:rgb(0%,0%,0%);fill-opacity:1;" d="M 226.355469 188.726562 C 225.722656 188.726562 225.242188 189.039062 224.921875 189.664062 C 224.605469 190.289062 224.445312 191.226562 224.445312 192.480469 C 224.445312 193.730469 224.605469 194.667969 224.921875 195.292969 C 225.242188 195.917969 225.722656 196.230469 226.355469 196.230469 C 226.996094 196.230469 227.472656 195.917969 227.792969 195.292969 C 228.113281 194.667969 228.273438 193.730469 228.273438 192.480469 C 228.273438 191.226562 228.113281 190.289062 227.792969 189.664062 C 227.472656 189.039062 226.996094 188.726562 226.355469 188.726562 Z M 226.355469 187.75 C 227.378906 187.75 228.15625 188.15625 228.695312 188.964844 C 229.234375 189.769531 229.503906 190.941406 229.503906 192.480469 C 229.503906 194.015625 229.234375 195.1875 228.695312 195.996094 C 228.15625 196.800781 227.378906 197.207031 226.355469 197.207031 C 225.335938 197.207031 224.554688 196.800781 224.015625 195.996094 C 223.476562 195.1875 223.207031 194.015625 223.207031 192.480469 C 223.207031 190.941406 223.476562 189.769531 224.015625 188.964844 C 224.554688 188.15625 225.335938 187.75 226.355469 187.75 Z M 226.355469 187.75 "/>
<path style=" stroke:none;fill-rule:nonzero;fill:rgb(0%,0%,0%);fill-opacity:1;" d="M 233.234375 186.433594 C 232.792969 186.433594 232.457031 186.652344 232.234375 187.089844 C 232.011719 187.523438 231.898438 188.183594 231.898438 189.058594 C 231.898438 189.933594 232.011719 190.589844 232.234375 191.027344 C 232.457031 191.464844 232.792969 191.683594 233.234375 191.683594 C 233.683594 191.683594 234.019531 191.464844 234.242188 191.027344 C 234.464844 190.589844 234.578125 189.933594 234.578125 189.058594 C 234.578125 188.183594 234.464844 187.523438 234.242188 187.089844 C 234.019531 186.652344 233.683594 186.433594 233.234375 186.433594 Z M 233.234375 185.75 C 233.953125 185.75 234.496094 186.03125 234.875 186.597656 C 235.253906 187.164062 235.441406 187.984375 235.441406 189.058594 C 235.441406 190.132812 235.253906 190.953125 234.875 191.519531 C 234.496094 192.085938 233.953125 192.367188 233.234375 192.367188 C 232.519531 192.367188 231.976562 192.085938 231.597656 191.519531 C 231.21875 190.953125 231.03125 190.132812 231.03125 189.058594 C 231.03125 187.984375 231.21875 187.164062 231.597656 186.597656 C 231.976562 186.03125 232.519531 185.75 233.234375 185.75 Z M 233.234375 185.75 "/>
<g clip-path="url(#clip4)" clip-rule="nonzero">
<path style="fill:none;stroke-width:0.8;stroke-linecap:square;stroke-linejoin:round;stroke:rgb(69.019608%,69.019608%,69.019608%);stroke-opacity:1;stroke-miterlimit:4;" d="M 245.44375 143.1 L 245.44375 7.2 " transform="matrix(1.25,0,0,1.25,0,0)"/>
</g>
<path style="fill:none;stroke-width:0.8;stroke-linecap:butt;stroke-linejoin:round;stroke:rgb(0%,0%,0%);stroke-opacity:1;stroke-miterlimit:4;" d="M 0 0 L 0 3.5 " transform="matrix(1.25,0,0,1.25,306.804688,178.875)"/>
<path style=" stroke:none;fill-rule:nonzero;fill:rgb(0%,0%,0%);fill-opacity:1;" d="M 297.355469 196 L 299.367188 196 L 299.367188 189.046875 L 297.179688 189.488281 L 297.179688 188.363281 L 299.359375 187.925781 L 300.589844 187.925781 L 300.589844 196 L 302.601562 196 L 302.601562 197.039062 L 297.355469 197.039062 Z M 297.355469 196 "/>
<path style=" stroke:none;fill-rule:nonzero;fill:rgb(0%,0%,0%);fill-opacity:1;" d="M 307.730469 188.738281 C 307.097656 188.738281 306.617188 189.050781 306.296875 189.675781 C 305.980469 190.296875 305.820312 191.238281 305.820312 192.492188 C 305.820312 193.738281 305.980469 194.675781 306.296875 195.300781 C 306.617188 195.925781 307.097656 196.238281 307.730469 196.238281 C 308.371094 196.238281 308.847656 195.925781 309.167969 195.300781 C 309.488281 194.675781 309.648438 193.738281 309.648438 192.492188 C 309.648438 191.238281 309.488281 190.296875 309.167969 189.675781 C 308.847656 189.050781 308.371094 188.738281 307.730469 188.738281 Z M 307.730469 187.761719 C 308.753906 187.761719 309.53125 188.164062 310.070312 188.972656 C 310.609375 189.78125 310.878906 190.953125 310.878906 192.492188 C 310.878906 194.023438 310.609375 195.195312 310.070312 196.003906 C 309.53125 196.8125 308.753906 197.214844 307.730469 197.214844 C 306.710938 197.214844 305.929688 196.8125 305.390625 196.003906 C 304.851562 195.195312 304.582031 194.023438 304.582031 192.492188 C 304.582031 190.953125 304.851562 189.78125 305.390625 188.972656 C 305.929688 188.164062 306.710938 187.761719 307.730469 187.761719 Z M 307.730469 187.761719 "/>
<path style=" stroke:none;fill-rule:nonzero;fill:rgb(0%,0%,0%);fill-opacity:1;" d="M 312.914062 191.527344 L 314.324219 191.527344 L 314.324219 186.660156 L 312.792969 186.96875 L 312.792969 186.179688 L 314.316406 185.875 L 315.179688 185.875 L 315.179688 191.527344 L 316.589844 191.527344 L 316.589844 192.253906 L 312.914062 192.253906 Z M 312.914062 191.527344 "/>
<path style="fill:none;stroke-width:0.6;stroke-linecap:butt;stroke-linejoin:round;stroke:rgb(0%,0%,0%);stroke-opacity:1;stroke-miterlimit:4;" d="M -0.000178 0 L -0.000178 2 " transform="matrix(1.25,0,0,1.25,87.176004,178.875)"/>
<path style="fill:none;stroke-width:0.6;stroke-linecap:butt;stroke-linejoin:round;stroke:rgb(0%,0%,0%);stroke-opacity:1;stroke-miterlimit:4;" d="M -0.001219 0 L -0.001219 2 " transform="matrix(1.25,0,0,1.25,101.50543,178.875)"/>
<path style="fill:none;stroke-width:0.6;stroke-linecap:butt;stroke-linejoin:round;stroke:rgb(0%,0%,0%);stroke-opacity:1;stroke-miterlimit:4;" d="M -0.000355 0 L -0.000355 2 " transform="matrix(1.25,0,0,1.25,111.672319,178.875)"/>
<path style="fill:none;stroke-width:0.6;stroke-linecap:butt;stroke-linejoin:round;stroke:rgb(0%,0%,0%);stroke-opacity:1;stroke-miterlimit:4;" d="M 0.000178 0 L 0.000178 2 " transform="matrix(1.25,0,0,1.25,119.558371,178.875)"/>
<path style="fill:none;stroke-width:0.6;stroke-linecap:butt;stroke-linejoin:round;stroke:rgb(0%,0%,0%);stroke-opacity:1;stroke-miterlimit:4;" d="M -0.001396 0 L -0.001396 2 " transform="matrix(1.25,0,0,1.25,126.001745,178.875)"/>
<path style="fill:none;stroke-width:0.6;stroke-linecap:butt;stroke-linejoin:round;stroke:rgb(0%,0%,0%);stroke-opacity:1;stroke-miterlimit:4;" d="M -0.000257 0 L -0.000257 2 " transform="matrix(1.25,0,0,1.25,131.44954,178.875)"/>
<path style="fill:none;stroke-width:0.6;stroke-linecap:butt;stroke-linejoin:round;stroke:rgb(0%,0%,0%);stroke-opacity:1;stroke-miterlimit:4;" d="M -0.000533 0 L -0.000533 2 " transform="matrix(1.25,0,0,1.25,136.168635,178.875)"/>
<path style="fill:none;stroke-width:0.6;stroke-linecap:butt;stroke-linejoin:round;stroke:rgb(0%,0%,0%);stroke-opacity:1;stroke-miterlimit:4;" d="M 0.000688 0 L 0.000688 2 " transform="matrix(1.25,0,0,1.25,140.331171,178.875)"/>
<path style="fill:none;stroke-width:0.6;stroke-linecap:butt;stroke-linejoin:round;stroke:rgb(0%,0%,0%);stroke-opacity:1;stroke-miterlimit:4;" d="M -0.000178 0 L -0.000178 2 " transform="matrix(1.25,0,0,1.25,168.551004,178.875)"/>
<path style="fill:none;stroke-width:0.6;stroke-linecap:butt;stroke-linejoin:round;stroke:rgb(0%,0%,0%);stroke-opacity:1;stroke-miterlimit:4;" d="M -0.001219 0 L -0.001219 2 " transform="matrix(1.25,0,0,1.25,182.88043,178.875)"/>
<path style="fill:none;stroke-width:0.6;stroke-linecap:butt;stroke-linejoin:round;stroke:rgb(0%,0%,0%);stroke-opacity:1;stroke-miterlimit:4;" d="M -0.000355 0 L -0.000355 2 " transform="matrix(1.25,0,0,1.25,193.047319,178.875)"/>
<path style="fill:none;stroke-width:0.6;stroke-linecap:butt;stroke-linejoin:round;stroke:rgb(0%,0%,0%);stroke-opacity:1;stroke-miterlimit:4;" d="M 0.000178 0 L 0.000178 2 " transform="matrix(1.25,0,0,1.25,200.933371,178.875)"/>
<path style="fill:none;stroke-width:0.6;stroke-linecap:butt;stroke-linejoin:round;stroke:rgb(0%,0%,0%);stroke-opacity:1;stroke-miterlimit:4;" d="M -0.001396 0 L -0.001396 2 " transform="matrix(1.25,0,0,1.25,207.376745,178.875)"/>
<path style="fill:none;stroke-width:0.6;stroke-linecap:butt;stroke-linejoin:round;stroke:rgb(0%,0%,0%);stroke-opacity:1;stroke-miterlimit:4;" d="M -0.000257 0 L -0.000257 2 " transform="matrix(1.25,0,0,1.25,212.82454,178.875)"/>
<path style="fill:none;stroke-width:0.6;stroke-linecap:butt;stroke-linejoin:round;stroke:rgb(0%,0%,0%);stroke-opacity:1;stroke-miterlimit:4;" d="M -0.000533 0 L -0.000533 2 " transform="matrix(1.25,0,0,1.25,217.543635,178.875)"/>
<path style="fill:none;stroke-width:0.6;stroke-linecap:butt;stroke-linejoin:round;stroke:rgb(0%,0%,0%);stroke-opacity:1;stroke-miterlimit:4;" d="M 0.000688 0 L 0.000688 2 " transform="matrix(1.25,0,0,1.25,221.706171,178.875)"/>
<path style="fill:none;stroke-width:0.6;stroke-linecap:butt;stroke-linejoin:round;stroke:rgb(0%,0%,0%);stroke-opacity:1;stroke-miterlimit:4;" d="M -0.000178 0 L -0.000178 2 " transform="matrix(1.25,0,0,1.25,249.926004,178.875)"/>
<path style="fill:none;stroke-width:0.6;stroke-linecap:butt;stroke-linejoin:round;stroke:rgb(0%,0%,0%);stroke-opacity:1;stroke-miterlimit:4;" d="M -0.001219 0 L -0.001219 2 " transform="matrix(1.25,0,0,1.25,264.25543,178.875)"/>
<path style="fill:none;stroke-width:0.6;stroke-linecap:butt;stroke-linejoin:round;stroke:rgb(0%,0%,0%);stroke-opacity:1;stroke-miterlimit:4;" d="M -0.000355 0 L -0.000355 2 " transform="matrix(1.25,0,0,1.25,274.422319,178.875)"/>
<path style="fill:none;stroke-width:0.6;stroke-linecap:butt;stroke-linejoin:round;stroke:rgb(0%,0%,0%);stroke-opacity:1;stroke-miterlimit:4;" d="M 0.000178 0 L 0.000178 2 " transform="matrix(1.25,0,0,1.25,282.308371,178.875)"/>
<path style="fill:none;stroke-width:0.6;stroke-linecap:butt;stroke-linejoin:round;stroke:rgb(0%,0%,0%);stroke-opacity:1;stroke-miterlimit:4;" d="M -0.001396 0 L -0.001396 2 " transform="matrix(1.25,0,0,1.25,288.751745,178.875)"/>
<path style="fill:none;stroke-width:0.6;stroke-linecap:butt;stroke-linejoin:round;stroke:rgb(0%,0%,0%);stroke-opacity:1;stroke-miterlimit:4;" d="M -0.000257 0 L -0.000257 2 " transform="matrix(1.25,0,0,1.25,294.19954,178.875)"/>
<path style="fill:none;stroke-width:0.6;stroke-linecap:butt;stroke-linejoin:round;stroke:rgb(0%,0%,0%);stroke-opacity:1;stroke-miterlimit:4;" d="M -0.000533 0 L -0.000533 2 " transform="matrix(1.25,0,0,1.25,298.918635,178.875)"/>
<path style="fill:none;stroke-width:0.6;stroke-linecap:butt;stroke-linejoin:round;stroke:rgb(0%,0%,0%);stroke-opacity:1;stroke-miterlimit:4;" d="M 0.000688 0 L 0.000688 2 " transform="matrix(1.25,0,0,1.25,303.081171,178.875)"/>
<path style=" stroke:none;fill-rule:nonzero;fill:rgb(0%,0%,0%);fill-opacity:1;" d="M 155.507812 205.445312 L 155.507812 207.386719 L 157.820312 207.386719 L 157.820312 208.257812 L 155.507812 208.257812 L 155.507812 211.96875 C 155.507812 212.527344 155.585938 212.882812 155.738281 213.042969 C 155.890625 213.203125 156.199219 213.28125 156.667969 213.28125 L 157.820312 213.28125 L 157.820312 214.222656 L 156.667969 214.222656 C 155.800781 214.222656 155.203125 214.058594 154.875 213.738281 C 154.546875 213.414062 154.378906 212.824219 154.378906 211.96875 L 154.378906 208.257812 L 153.554688 208.257812 L 153.554688 207.386719 L 154.378906 207.386719 L 154.378906 205.445312 Z M 155.507812 205.445312 "/>
<path style=" stroke:none;fill-rule:nonzero;fill:rgb(0%,0%,0%);fill-opacity:1;" d="M 159.300781 207.386719 L 160.421875 207.386719 L 160.421875 214.222656 L 159.300781 214.222656 Z M 159.300781 204.722656 L 160.421875 204.722656 L 160.421875 206.148438 L 159.300781 206.148438 Z M 159.300781 204.722656 "/>
<path style=" stroke:none;fill-rule:nonzero;fill:rgb(0%,0%,0%);fill-opacity:1;" d="M 168.09375 208.699219 C 168.375 208.191406 168.710938 207.820312 169.101562 207.582031 C 169.492188 207.339844 169.953125 207.222656 170.480469 207.222656 C 171.195312 207.222656 171.742188 207.46875 172.128906 207.96875 C 172.515625 208.464844 172.710938 209.175781 172.710938 210.09375 L 172.710938 214.222656 L 171.582031 214.222656 L 171.582031 210.132812 C 171.582031 209.476562 171.464844 208.992188 171.230469 208.675781 C 171 208.355469 170.644531 208.199219 170.171875 208.199219 C 169.589844 208.199219 169.128906 208.390625 168.789062 208.777344 C 168.453125 209.164062 168.285156 209.691406 168.285156 210.359375 L 168.285156 214.222656 L 167.15625 214.222656 L 167.15625 210.132812 C 167.15625 209.472656 167.039062 208.984375 166.808594 208.671875 C 166.574219 208.355469 166.21875 208.199219 165.734375 208.199219 C 165.160156 208.199219 164.703125 208.390625 164.363281 208.78125 C 164.027344 209.167969 163.859375 209.695312 163.859375 210.359375 L 163.859375 214.222656 L 162.730469 214.222656 L 162.730469 207.386719 L 163.859375 207.386719 L 163.859375 208.449219 C 164.113281 208.027344 164.421875 207.71875 164.78125 207.519531 C 165.136719 207.320312 165.5625 207.222656 166.054688 207.222656 C 166.554688 207.222656 166.976562 207.347656 167.324219 207.601562 C 167.671875 207.851562 167.929688 208.21875 168.09375 208.699219 Z M 168.09375 208.699219 "/>
<path style=" stroke:none;fill-rule:nonzero;fill:rgb(0%,0%,0%);fill-opacity:1;" d="M 180.796875 210.523438 L 180.796875 211.070312 L 175.632812 211.070312 C 175.683594 211.84375 175.914062 212.433594 176.332031 212.839844 C 176.75 213.242188 177.328125 213.445312 178.074219 213.445312 C 178.503906 213.445312 178.921875 213.394531 179.328125 213.289062 C 179.734375 213.183594 180.136719 213.023438 180.535156 212.8125 L 180.535156 213.875 C 180.132812 214.042969 179.71875 214.175781 179.292969 214.265625 C 178.871094 214.355469 178.441406 214.398438 178.007812 214.398438 C 176.917969 214.398438 176.050781 214.082031 175.414062 213.449219 C 174.777344 212.8125 174.460938 211.953125 174.460938 210.871094 C 174.460938 209.75 174.761719 208.863281 175.367188 208.207031 C 175.972656 207.550781 176.785156 207.222656 177.8125 207.222656 C 178.730469 207.222656 179.457031 207.515625 179.992188 208.109375 C 180.527344 208.699219 180.796875 209.503906 180.796875 210.523438 Z M 179.671875 210.191406 C 179.664062 209.578125 179.492188 209.089844 179.15625 208.722656 C 178.820312 208.355469 178.378906 208.171875 177.824219 208.171875 C 177.199219 208.171875 176.695312 208.347656 176.320312 208.703125 C 175.945312 209.058594 175.726562 209.554688 175.667969 210.199219 Z M 179.671875 210.191406 "/>
<path style=" stroke:none;fill-rule:nonzero;fill:rgb(0%,0%,0%);fill-opacity:1;" d="M 189.308594 204.738281 C 188.765625 205.671875 188.359375 206.597656 188.09375 207.515625 C 187.832031 208.429688 187.699219 209.355469 187.699219 210.296875 C 187.699219 211.234375 187.832031 212.167969 188.097656 213.089844 C 188.367188 214.011719 188.769531 214.9375 189.308594 215.871094 L 188.332031 215.871094 C 187.722656 214.914062 187.269531 213.972656 186.964844 213.050781 C 186.660156 212.125 186.507812 211.207031 186.507812 210.296875 C 186.507812 209.390625 186.660156 208.476562 186.960938 207.558594 C 187.261719 206.636719 187.71875 205.695312 188.332031 204.738281 Z M 189.308594 204.738281 "/>
<path style=" stroke:none;fill-rule:nonzero;fill:rgb(0%,0%,0%);fill-opacity:1;" d="M 195.847656 207.585938 L 195.847656 208.648438 C 195.53125 208.484375 195.199219 208.363281 194.859375 208.285156 C 194.515625 208.203125 194.164062 208.160156 193.796875 208.160156 C 193.238281 208.160156 192.820312 208.246094 192.542969 208.417969 C 192.261719 208.585938 192.125 208.84375 192.125 209.1875 C 192.125 209.445312 192.222656 209.652344 192.421875 209.800781 C 192.621094 209.949219 193.023438 210.089844 193.625 210.222656 L 194.011719 210.308594 C 194.808594 210.480469 195.375 210.71875 195.710938 211.03125 C 196.046875 211.34375 196.214844 211.777344 196.214844 212.335938 C 196.214844 212.96875 195.960938 213.472656 195.460938 213.84375 C 194.957031 214.214844 194.265625 214.398438 193.386719 214.398438 C 193.023438 214.398438 192.640625 214.363281 192.242188 214.292969 C 191.847656 214.21875 191.429688 214.113281 190.988281 213.972656 L 190.988281 212.8125 C 191.40625 213.027344 191.8125 213.1875 192.214844 213.296875 C 192.617188 213.402344 193.015625 213.457031 193.414062 213.457031 C 193.941406 213.457031 194.347656 213.367188 194.632812 213.1875 C 194.917969 213.003906 195.058594 212.75 195.058594 212.421875 C 195.058594 212.117188 194.957031 211.882812 194.75 211.71875 C 194.546875 211.554688 194.097656 211.398438 193.398438 211.25 L 193.007812 211.15625 C 192.3125 211.011719 191.8125 210.785156 191.5 210.484375 C 191.191406 210.179688 191.039062 209.761719 191.039062 209.234375 C 191.039062 208.589844 191.265625 208.09375 191.722656 207.746094 C 192.175781 207.394531 192.824219 207.222656 193.664062 207.222656 C 194.078125 207.222656 194.46875 207.25 194.832031 207.3125 C 195.199219 207.371094 195.539062 207.464844 195.847656 207.585938 Z M 195.847656 207.585938 "/>
<path style=" stroke:none;fill-rule:nonzero;fill:rgb(0%,0%,0%);fill-opacity:1;" d="M 203.847656 210.523438 L 203.847656 211.070312 L 198.683594 211.070312 C 198.734375 211.84375 198.96875 212.433594 199.382812 212.839844 C 199.800781 213.242188 200.382812 213.445312 201.125 213.445312 C 201.558594 213.445312 201.976562 213.394531 202.378906 213.289062 C 202.785156 213.183594 203.1875 213.023438 203.585938 212.8125 L 203.585938 213.875 C 203.183594 214.042969 202.769531 214.175781 202.347656 214.265625 C 201.925781 214.355469 201.496094 214.398438 201.058594 214.398438 C 199.96875 214.398438 199.105469 214.082031 198.46875 213.449219 C 197.832031 212.8125 197.511719 211.953125 197.511719 210.871094 C 197.511719 209.75 197.816406 208.863281 198.417969 208.207031 C 199.023438 207.550781 199.839844 207.222656 200.863281 207.222656 C 201.785156 207.222656 202.511719 207.515625 203.046875 208.109375 C 203.582031 208.699219 203.847656 209.503906 203.847656 210.523438 Z M 202.726562 210.191406 C 202.71875 209.578125 202.546875 209.089844 202.210938 208.722656 C 201.875 208.355469 201.429688 208.171875 200.875 208.171875 C 200.25 208.171875 199.75 208.347656 199.371094 208.703125 C 198.996094 209.058594 198.78125 209.554688 198.722656 210.199219 Z M 202.726562 210.191406 "/>
<path style=" stroke:none;fill-rule:nonzero;fill:rgb(0%,0%,0%);fill-opacity:1;" d="M 210.613281 207.648438 L 210.613281 208.699219 C 210.292969 208.523438 209.976562 208.390625 209.65625 208.304688 C 209.339844 208.214844 209.015625 208.171875 208.691406 208.171875 C 207.960938 208.171875 207.394531 208.402344 206.992188 208.867188 C 206.589844 209.328125 206.386719 209.972656 206.386719 210.808594 C 206.386719 211.644531 206.589844 212.292969 206.992188 212.753906 C 207.394531 213.214844 207.960938 213.445312 208.691406 213.445312 C 209.015625 213.445312 209.339844 213.402344 209.65625 213.316406 C 209.976562 213.226562 210.292969 213.097656 210.613281 212.921875 L 210.613281 213.960938 C 210.296875 214.105469 209.972656 214.214844 209.636719 214.289062 C 209.304688 214.363281 208.945312 214.398438 208.566406 214.398438 C 207.539062 214.398438 206.71875 214.074219 206.113281 213.429688 C 205.507812 212.78125 205.203125 211.90625 205.203125 210.808594 C 205.203125 209.695312 205.511719 208.816406 206.121094 208.179688 C 206.734375 207.539062 207.574219 207.222656 208.640625 207.222656 C 208.988281 207.222656 209.324219 207.257812 209.652344 207.328125 C 209.984375 207.398438 210.300781 207.503906 210.613281 207.648438 Z M 210.613281 207.648438 "/>
<path style=" stroke:none;fill-rule:nonzero;fill:rgb(0%,0%,0%);fill-opacity:1;" d="M 212.390625 204.738281 L 213.367188 204.738281 C 213.976562 205.695312 214.429688 206.636719 214.734375 207.558594 C 215.039062 208.476562 215.191406 209.390625 215.191406 210.296875 C 215.191406 211.207031 215.039062 212.125 214.734375 213.050781 C 214.429688 213.972656 213.976562 214.914062 213.367188 215.871094 L 212.390625 215.871094 C 212.929688 214.9375 213.332031 214.011719 213.601562 213.089844 C 213.867188 212.167969 214 211.234375 214 210.296875 C 214 209.355469 213.867188 208.429688 213.601562 207.515625 C 213.332031 206.597656 212.929688 205.671875 212.390625 204.738281 Z M 212.390625 204.738281 "/>
<g clip-path="url(#clip5)" clip-rule="nonzero">
<path style="fill:none;stroke-width:0.8;stroke-linecap:square;stroke-linejoin:round;stroke:rgb(69.019608%,69.019608%,69.019608%);stroke-opacity:1;stroke-miterlimit:4;" d="M 50.14375 141.153125 L 245.44375 141.153125 " transform="matrix(1.25,0,0,1.25,0,0)"/>
</g>
<path style="fill:none;stroke-width:0.8;stroke-linecap:butt;stroke-linejoin:round;stroke:rgb(0%,0%,0%);stroke-opacity:1;stroke-miterlimit:4;" d="M 0 0.001023 L -3.5 0.001023 " transform="matrix(1.25,0,0,1.25,62.679688,176.440128)"/>
<path style=" stroke:none;fill-rule:nonzero;fill:rgb(0%,0%,0%);fill-opacity:1;" d="M 30.070312 172.886719 C 29.4375 172.886719 28.960938 173.199219 28.640625 173.824219 C 28.320312 174.449219 28.160156 175.386719 28.160156 176.640625 C 28.160156 177.890625 28.320312 178.828125 28.640625 179.453125 C 28.960938 180.078125 29.4375 180.390625 30.070312 180.390625 C 30.710938 180.390625 31.1875 180.078125 31.507812 179.453125 C 31.828125 178.828125 31.988281 177.890625 31.988281 176.640625 C 31.988281 175.386719 31.828125 174.449219 31.507812 173.824219 C 31.1875 173.199219 30.710938 172.886719 30.070312 172.886719 Z M 30.070312 171.910156 C 31.09375 171.910156 31.875 172.316406 32.414062 173.125 C 32.953125 173.933594 33.21875 175.105469 33.21875 176.640625 C 33.21875 178.175781 32.953125 179.347656 32.414062 180.15625 C 31.875 180.964844 31.09375 181.367188 30.070312 181.367188 C 29.050781 181.367188 28.269531 180.964844 27.730469 180.15625 C 27.191406 179.347656 26.921875 178.175781 26.921875 176.640625 C 26.921875 175.105469 27.191406 173.933594 27.730469 173.125 C 28.269531 172.316406 29.050781 171.910156 30.070312 171.910156 Z M 30.070312 171.910156 "/>
<path style=" stroke:none;fill-rule:nonzero;fill:rgb(0%,0%,0%);fill-opacity:1;" d="M 35.386719 179.636719 L 36.675781 179.636719 L 36.675781 181.1875 L 35.386719 181.1875 Z M 35.386719 179.636719 "/>
<path style=" stroke:none;fill-rule:nonzero;fill:rgb(0%,0%,0%);fill-opacity:1;" d="M 40.421875 180.152344 L 44.726562 180.152344 L 44.726562 181.1875 L 38.941406 181.1875 L 38.941406 180.152344 C 39.40625 179.667969 40.042969 179.019531 40.851562 178.203125 C 41.660156 177.386719 42.167969 176.859375 42.375 176.621094 C 42.769531 176.179688 43.046875 175.804688 43.203125 175.496094 C 43.359375 175.191406 43.4375 174.886719 43.4375 174.589844 C 43.4375 174.105469 43.269531 173.710938 42.929688 173.40625 C 42.589844 173.101562 42.144531 172.949219 41.601562 172.949219 C 41.214844 172.949219 40.804688 173.015625 40.375 173.148438 C 39.945312 173.285156 39.488281 173.488281 39 173.761719 L 39 172.515625 C 39.496094 172.316406 39.960938 172.164062 40.390625 172.0625 C 40.824219 171.960938 41.21875 171.910156 41.578125 171.910156 C 42.519531 171.910156 43.273438 172.148438 43.835938 172.621094 C 44.394531 173.09375 44.675781 173.722656 44.675781 174.511719 C 44.675781 174.886719 44.605469 175.242188 44.464844 175.578125 C 44.324219 175.914062 44.070312 176.308594 43.699219 176.761719 C 43.597656 176.882812 43.273438 177.222656 42.730469 177.785156 C 42.183594 178.351562 41.414062 179.140625 40.421875 180.152344 Z M 40.421875 180.152344 "/>
<path style=" stroke:none;fill-rule:nonzero;fill:rgb(0%,0%,0%);fill-opacity:1;" d="M 50.703125 173.148438 L 47.589844 178.015625 L 50.703125 178.015625 Z M 50.378906 172.074219 L 51.929688 172.074219 L 51.929688 178.015625 L 53.230469 178.015625 L 53.230469 179.039062 L 51.929688 179.039062 L 51.929688 181.1875 L 50.703125 181.1875 L 50.703125 179.039062 L 46.589844 179.039062 L 46.589844 177.851562 Z M 50.378906 172.074219 "/>
<g clip-path="url(#clip6)" clip-rule="nonzero">
<path style="fill:none;stroke-width:0.8;stroke-linecap:square;stroke-linejoin:round;stroke:rgb(69.019608%,69.019608%,69.019608%);stroke-opacity:1;stroke-miterlimit:4;" d="M 50.14375 111.946875 L 245.44375 111.946875 " transform="matrix(1.25,0,0,1.25,0,0)"/>
</g>
<path style="fill:none;stroke-width:0.8;stroke-linecap:butt;stroke-linejoin:round;stroke:rgb(0%,0%,0%);stroke-opacity:1;stroke-miterlimit:4;" d="M 0 -0.001086 L -3.5 -0.001086 " transform="matrix(1.25,0,0,1.25,62.679688,139.934951)"/>
<path style=" stroke:none;fill-rule:nonzero;fill:rgb(0%,0%,0%);fill-opacity:1;" d="M 30.070312 136.382812 C 29.4375 136.382812 28.960938 136.695312 28.640625 137.320312 C 28.320312 137.945312 28.160156 138.882812 28.160156 140.136719 C 28.160156 141.386719 28.320312 142.324219 28.640625 142.949219 C 28.960938 143.574219 29.4375 143.886719 30.070312 143.886719 C 30.710938 143.886719 31.1875 143.574219 31.507812 142.949219 C 31.828125 142.324219 31.988281 141.386719 31.988281 140.136719 C 31.988281 138.882812 31.828125 137.945312 31.507812 137.320312 C 31.1875 136.695312 30.710938 136.382812 30.070312 136.382812 Z M 30.070312 135.40625 C 31.09375 135.40625 31.875 135.8125 32.414062 136.621094 C 32.953125 137.425781 33.21875 138.597656 33.21875 140.136719 C 33.21875 141.671875 32.953125 142.84375 32.414062 143.652344 C 31.875 144.457031 31.09375 144.863281 30.070312 144.863281 C 29.050781 144.863281 28.269531 144.457031 27.730469 143.652344 C 27.191406 142.84375 26.921875 141.671875 26.921875 140.136719 C 26.921875 138.597656 27.191406 137.425781 27.730469 136.621094 C 28.269531 135.8125 29.050781 135.40625 30.070312 135.40625 Z M 30.070312 135.40625 "/>
<path style=" stroke:none;fill-rule:nonzero;fill:rgb(0%,0%,0%);fill-opacity:1;" d="M 35.386719 143.132812 L 36.675781 143.132812 L 36.675781 144.683594 L 35.386719 144.683594 Z M 35.386719 143.132812 "/>
<path style=" stroke:none;fill-rule:nonzero;fill:rgb(0%,0%,0%);fill-opacity:1;" d="M 40.421875 143.648438 L 44.726562 143.648438 L 44.726562 144.683594 L 38.941406 144.683594 L 38.941406 143.648438 C 39.40625 143.164062 40.042969 142.511719 40.851562 141.699219 C 41.660156 140.882812 42.167969 140.355469 42.375 140.117188 C 42.769531 139.675781 43.046875 139.300781 43.203125 138.992188 C 43.359375 138.683594 43.4375 138.382812 43.4375 138.085938 C 43.4375 137.601562 43.269531 137.207031 42.929688 136.902344 C 42.589844 136.597656 42.144531 136.445312 41.601562 136.445312 C 41.214844 136.445312 40.804688 136.511719 40.375 136.644531 C 39.945312 136.777344 39.488281 136.984375 39 137.257812 L 39 136.011719 C 39.496094 135.8125 39.960938 135.660156 40.390625 135.558594 C 40.824219 135.457031 41.21875 135.40625 41.578125 135.40625 C 42.519531 135.40625 43.273438 135.644531 43.835938 136.117188 C 44.394531 136.585938 44.675781 137.21875 44.675781 138.007812 C 44.675781 138.382812 44.605469 138.738281 44.464844 139.074219 C 44.324219 139.40625 44.070312 139.800781 43.699219 140.257812 C 43.597656 140.375 43.273438 140.71875 42.730469 141.28125 C 42.183594 141.84375 41.414062 142.632812 40.421875 143.648438 Z M 40.421875 143.648438 "/>
<path style=" stroke:none;fill-rule:nonzero;fill:rgb(0%,0%,0%);fill-opacity:1;" d="M 50.105469 139.636719 C 49.550781 139.636719 49.113281 139.828125 48.789062 140.207031 C 48.464844 140.582031 48.304688 141.101562 48.304688 141.761719 C 48.304688 142.414062 48.464844 142.933594 48.789062 143.316406 C 49.113281 143.695312 49.550781 143.886719 50.105469 143.886719 C 50.65625 143.886719 51.09375 143.695312 51.417969 143.316406 C 51.742188 142.933594 51.902344 142.414062 51.902344 141.761719 C 51.902344 141.101562 51.742188 140.582031 51.417969 140.207031 C 51.09375 139.828125 50.65625 139.636719 50.105469 139.636719 Z M 52.550781 135.773438 L 52.550781 136.894531 C 52.242188 136.75 51.929688 136.636719 51.613281 136.5625 C 51.296875 136.484375 50.984375 136.445312 50.675781 136.445312 C 49.863281 136.445312 49.242188 136.71875 48.8125 137.269531 C 48.382812 137.816406 48.136719 138.648438 48.078125 139.757812 C 48.316406 139.402344 48.617188 139.132812 48.980469 138.945312 C 49.34375 138.753906 49.742188 138.660156 50.175781 138.660156 C 51.089844 138.660156 51.816406 138.9375 52.347656 139.496094 C 52.878906 140.050781 53.144531 140.804688 53.144531 141.761719 C 53.144531 142.695312 52.867188 143.449219 52.3125 144.015625 C 51.757812 144.578125 51.023438 144.863281 50.105469 144.863281 C 49.050781 144.863281 48.242188 144.457031 47.6875 143.652344 C 47.128906 142.84375 46.851562 141.671875 46.851562 140.136719 C 46.851562 138.695312 47.191406 137.546875 47.875 136.691406 C 48.558594 135.835938 49.476562 135.40625 50.628906 135.40625 C 50.9375 135.40625 51.25 135.4375 51.566406 135.5 C 51.878906 135.558594 52.207031 135.652344 52.550781 135.773438 Z M 52.550781 135.773438 "/>
<g clip-path="url(#clip7)" clip-rule="nonzero">
<path style="fill:none;stroke-width:0.8;stroke-linecap:square;stroke-linejoin:round;stroke:rgb(69.019608%,69.019608%,69.019608%);stroke-opacity:1;stroke-miterlimit:4;" d="M 50.14375 82.74375 L 245.44375 82.74375 " transform="matrix(1.25,0,0,1.25,0,0)"/>
</g>
<path style="fill:none;stroke-width:0.8;stroke-linecap:butt;stroke-linejoin:round;stroke:rgb(0%,0%,0%);stroke-opacity:1;stroke-miterlimit:4;" d="M 0 -0.000069 L -3.5 -0.000069 " transform="matrix(1.25,0,0,1.25,62.679688,103.429774)"/>
<path style=" stroke:none;fill-rule:nonzero;fill:rgb(0%,0%,0%);fill-opacity:1;" d="M 30.070312 99.878906 C 29.4375 99.878906 28.960938 100.191406 28.640625 100.816406 C 28.320312 101.4375 28.160156 102.378906 28.160156 103.632812 C 28.160156 104.878906 28.320312 105.816406 28.640625 106.441406 C 28.960938 107.066406 29.4375 107.378906 30.070312 107.378906 C 30.710938 107.378906 31.1875 107.066406 31.507812 106.441406 C 31.828125 105.816406 31.988281 104.878906 31.988281 103.632812 C 31.988281 102.378906 31.828125 101.4375 31.507812 100.816406 C 31.1875 100.191406 30.710938 99.878906 30.070312 99.878906 Z M 30.070312 98.902344 C 31.09375 98.902344 31.875 99.304688 32.414062 100.113281 C 32.953125 100.921875 33.21875 102.09375 33.21875 103.632812 C 33.21875 105.164062 32.953125 106.335938 32.414062 107.144531 C 31.875 107.953125 31.09375 108.355469 30.070312 108.355469 C 29.050781 108.355469 28.269531 107.953125 27.730469 107.144531 C 27.191406 106.335938 26.921875 105.164062 26.921875 103.632812 C 26.921875 102.09375 27.191406 100.921875 27.730469 100.113281 C 28.269531 99.304688 29.050781 98.902344 30.070312 98.902344 Z M 30.070312 98.902344 "/>
<path style=" stroke:none;fill-rule:nonzero;fill:rgb(0%,0%,0%);fill-opacity:1;" d="M 35.386719 106.628906 L 36.675781 106.628906 L 36.675781 108.179688 L 35.386719 108.179688 Z M 35.386719 106.628906 "/>
<path style=" stroke:none;fill-rule:nonzero;fill:rgb(0%,0%,0%);fill-opacity:1;" d="M 40.421875 107.140625 L 44.726562 107.140625 L 44.726562 108.179688 L 38.941406 108.179688 L 38.941406 107.140625 C 39.40625 106.65625 40.042969 106.007812 40.851562 105.191406 C 41.660156 104.375 42.167969 103.847656 42.375 103.613281 C 42.769531 103.167969 43.046875 102.792969 43.203125 102.488281 C 43.359375 102.179688 43.4375 101.878906 43.4375 101.582031 C 43.4375 101.097656 43.269531 100.703125 42.929688 100.398438 C 42.589844 100.089844 42.144531 99.9375 41.601562 99.9375 C 41.214844 99.9375 40.804688 100.003906 40.375 100.140625 C 39.945312 100.273438 39.488281 100.476562 39 100.75 L 39 99.503906 C 39.496094 99.304688 39.960938 99.15625 40.390625 99.054688 C 40.824219 98.953125 41.21875 98.902344 41.578125 98.902344 C 42.519531 98.902344 43.273438 99.136719 43.835938 99.609375 C 44.394531 100.082031 44.675781 100.710938 44.675781 101.5 C 44.675781 101.875 44.605469 102.230469 44.464844 102.566406 C 44.324219 102.902344 44.070312 103.296875 43.699219 103.753906 C 43.597656 103.871094 43.273438 104.210938 42.730469 104.777344 C 42.183594 105.339844 41.414062 106.128906 40.421875 107.140625 Z M 40.421875 107.140625 "/>
<path style=" stroke:none;fill-rule:nonzero;fill:rgb(0%,0%,0%);fill-opacity:1;" d="M 49.949219 103.851562 C 49.363281 103.851562 48.902344 104.007812 48.566406 104.320312 C 48.230469 104.636719 48.066406 105.066406 48.066406 105.613281 C 48.066406 106.164062 48.230469 106.59375 48.566406 106.910156 C 48.902344 107.222656 49.363281 107.378906 49.949219 107.378906 C 50.535156 107.378906 50.996094 107.222656 51.335938 106.90625 C 51.671875 106.589844 51.84375 106.160156 51.84375 105.613281 C 51.84375 105.066406 51.675781 104.636719 51.339844 104.320312 C 51.003906 104.007812 50.539062 103.851562 49.949219 103.851562 Z M 48.71875 103.328125 C 48.1875 103.195312 47.777344 102.949219 47.480469 102.589844 C 47.1875 102.226562 47.039062 101.785156 47.039062 101.261719 C 47.039062 100.535156 47.296875 99.960938 47.816406 99.535156 C 48.335938 99.113281 49.046875 98.902344 49.949219 98.902344 C 50.855469 98.902344 51.570312 99.113281 52.085938 99.535156 C 52.601562 99.960938 52.863281 100.535156 52.863281 101.261719 C 52.863281 101.785156 52.714844 102.226562 52.417969 102.589844 C 52.125 102.949219 51.714844 103.195312 51.191406 103.328125 C 51.785156 103.464844 52.246094 103.734375 52.578125 104.140625 C 52.910156 104.542969 53.074219 105.035156 53.074219 105.613281 C 53.074219 106.5 52.804688 107.175781 52.265625 107.648438 C 51.726562 108.121094 50.953125 108.355469 49.949219 108.355469 C 48.945312 108.355469 48.171875 108.121094 47.632812 107.648438 C 47.09375 107.175781 46.824219 106.5 46.824219 105.613281 C 46.824219 105.035156 46.992188 104.542969 47.324219 104.140625 C 47.660156 103.734375 48.125 103.464844 48.71875 103.328125 Z M 48.265625 101.378906 C 48.265625 101.851562 48.414062 102.21875 48.707031 102.484375 C 49.003906 102.746094 49.417969 102.878906 49.949219 102.878906 C 50.480469 102.878906 50.894531 102.746094 51.191406 102.484375 C 51.492188 102.21875 51.640625 101.851562 51.640625 101.378906 C 51.640625 100.90625 51.492188 100.539062 51.191406 100.273438 C 50.894531 100.011719 50.480469 99.878906 49.949219 99.878906 C 49.417969 99.878906 49.003906 100.011719 48.707031 100.273438 C 48.414062 100.539062 48.265625 100.90625 48.265625 101.378906 Z M 48.265625 101.378906 "/>
<g clip-path="url(#clip8)" clip-rule="nonzero">
<path style="fill:none;stroke-width:0.8;stroke-linecap:square;stroke-linejoin:round;stroke:rgb(69.019608%,69.019608%,69.019608%);stroke-opacity:1;stroke-miterlimit:4;" d="M 50.14375 53.540625 L 245.44375 53.540625 " transform="matrix(1.25,0,0,1.25,0,0)"/>
</g>
<path style="fill:none;stroke-width:0.8;stroke-linecap:butt;stroke-linejoin:round;stroke:rgb(0%,0%,0%);stroke-opacity:1;stroke-miterlimit:4;" d="M 0 0.000947 L -3.5 0.000947 " transform="matrix(1.25,0,0,1.25,62.679688,66.924598)"/>
<path style=" stroke:none;fill-rule:nonzero;fill:rgb(0%,0%,0%);fill-opacity:1;" d="M 30.070312 63.371094 C 29.4375 63.371094 28.960938 63.683594 28.640625 64.308594 C 28.320312 64.933594 28.160156 65.871094 28.160156 67.125 C 28.160156 68.375 28.320312 69.3125 28.640625 69.9375 C 28.960938 70.5625 29.4375 70.875 30.070312 70.875 C 30.710938 70.875 31.1875 70.5625 31.507812 69.9375 C 31.828125 69.3125 31.988281 68.375 31.988281 67.125 C 31.988281 65.871094 31.828125 64.933594 31.507812 64.308594 C 31.1875 63.683594 30.710938 63.371094 30.070312 63.371094 Z M 30.070312 62.394531 C 31.09375 62.394531 31.875 62.800781 32.414062 63.609375 C 32.953125 64.417969 33.21875 65.589844 33.21875 67.125 C 33.21875 68.660156 32.953125 69.832031 32.414062 70.640625 C 31.875 71.449219 31.09375 71.851562 30.070312 71.851562 C 29.050781 71.851562 28.269531 71.449219 27.730469 70.640625 C 27.191406 69.832031 26.921875 68.660156 26.921875 67.125 C 26.921875 65.589844 27.191406 64.417969 27.730469 63.609375 C 28.269531 62.800781 29.050781 62.394531 30.070312 62.394531 Z M 30.070312 62.394531 "/>
<path style=" stroke:none;fill-rule:nonzero;fill:rgb(0%,0%,0%);fill-opacity:1;" d="M 35.386719 70.121094 L 36.675781 70.121094 L 36.675781 71.671875 L 35.386719 71.671875 Z M 35.386719 70.121094 "/>
<path style=" stroke:none;fill-rule:nonzero;fill:rgb(0%,0%,0%);fill-opacity:1;" d="M 43.097656 66.757812 C 43.6875 66.886719 44.144531 67.148438 44.476562 67.546875 C 44.808594 67.945312 44.976562 68.4375 44.976562 69.023438 C 44.976562 69.921875 44.664062 70.621094 44.046875 71.113281 C 43.429688 71.605469 42.550781 71.851562 41.410156 71.851562 C 41.027344 71.851562 40.636719 71.8125 40.230469 71.738281 C 39.824219 71.664062 39.40625 71.550781 38.976562 71.398438 L 38.976562 70.207031 C 39.316406 70.40625 39.691406 70.558594 40.097656 70.660156 C 40.503906 70.761719 40.929688 70.8125 41.375 70.8125 C 42.148438 70.8125 42.734375 70.660156 43.140625 70.355469 C 43.546875 70.050781 43.75 69.605469 43.75 69.023438 C 43.75 68.488281 43.558594 68.066406 43.183594 67.765625 C 42.808594 67.460938 42.285156 67.308594 41.613281 67.308594 L 40.550781 67.308594 L 40.550781 66.296875 L 41.664062 66.296875 C 42.269531 66.296875 42.730469 66.175781 43.054688 65.933594 C 43.375 65.691406 43.535156 65.34375 43.535156 64.886719 C 43.535156 64.417969 43.371094 64.058594 43.039062 63.808594 C 42.707031 63.558594 42.230469 63.433594 41.613281 63.433594 C 41.273438 63.433594 40.914062 63.46875 40.527344 63.542969 C 40.140625 63.617188 39.714844 63.730469 39.25 63.882812 L 39.25 62.785156 C 39.71875 62.65625 40.15625 62.558594 40.566406 62.492188 C 40.976562 62.429688 41.359375 62.394531 41.722656 62.394531 C 42.660156 62.394531 43.398438 62.609375 43.945312 63.035156 C 44.488281 63.460938 44.761719 64.035156 44.761719 64.757812 C 44.761719 65.261719 44.617188 65.6875 44.328125 66.035156 C 44.039062 66.382812 43.628906 66.625 43.097656 66.757812 Z M 43.097656 66.757812 "/>
<path style=" stroke:none;fill-rule:nonzero;fill:rgb(0%,0%,0%);fill-opacity:1;" d="M 49.949219 63.371094 C 49.316406 63.371094 48.839844 63.683594 48.519531 64.308594 C 48.199219 64.933594 48.039062 65.871094 48.039062 67.125 C 48.039062 68.375 48.199219 69.3125 48.519531 69.9375 C 48.839844 70.5625 49.316406 70.875 49.949219 70.875 C 50.589844 70.875 51.066406 70.5625 51.386719 69.9375 C 51.707031 69.3125 51.867188 68.375 51.867188 67.125 C 51.867188 65.871094 51.707031 64.933594 51.386719 64.308594 C 51.066406 63.683594 50.589844 63.371094 49.949219 63.371094 Z M 49.949219 62.394531 C 50.972656 62.394531 51.753906 62.800781 52.292969 63.609375 C 52.832031 64.417969 53.101562 65.589844 53.101562 67.125 C 53.101562 68.660156 52.832031 69.832031 52.292969 70.640625 C 51.753906 71.449219 50.972656 71.851562 49.949219 71.851562 C 48.929688 71.851562 48.148438 71.449219 47.609375 70.640625 C 47.070312 69.832031 46.800781 68.660156 46.800781 67.125 C 46.800781 65.589844 47.070312 64.417969 47.609375 63.609375 C 48.148438 62.800781 48.929688 62.394531 49.949219 62.394531 Z M 49.949219 62.394531 "/>
<g clip-path="url(#clip9)" clip-rule="nonzero">
<path style="fill:none;stroke-width:0.8;stroke-linecap:square;stroke-linejoin:round;stroke:rgb(69.019608%,69.019608%,69.019608%);stroke-opacity:1;stroke-miterlimit:4;" d="M 50.14375 24.334375 L 245.44375 24.334375 " transform="matrix(1.25,0,0,1.25,0,0)"/>
</g>
<path style="fill:none;stroke-width:0.8;stroke-linecap:butt;stroke-linejoin:round;stroke:rgb(0%,0%,0%);stroke-opacity:1;stroke-miterlimit:4;" d="M 0 -0.001161 L -3.5 -0.001161 " transform="matrix(1.25,0,0,1.25,62.679688,30.41942)"/>
<path style=" stroke:none;fill-rule:nonzero;fill:rgb(0%,0%,0%);fill-opacity:1;" d="M 30.070312 26.867188 C 29.4375 26.867188 28.960938 27.179688 28.640625 27.804688 C 28.320312 28.429688 28.160156 29.367188 28.160156 30.621094 C 28.160156 31.871094 28.320312 32.808594 28.640625 33.433594 C 28.960938 34.058594 29.4375 34.371094 30.070312 34.371094 C 30.710938 34.371094 31.1875 34.058594 31.507812 33.433594 C 31.828125 32.808594 31.988281 31.871094 31.988281 30.621094 C 31.988281 29.367188 31.828125 28.429688 31.507812 27.804688 C 31.1875 27.179688 30.710938 26.867188 30.070312 26.867188 Z M 30.070312 25.890625 C 31.09375 25.890625 31.875 26.296875 32.414062 27.105469 C 32.953125 27.910156 33.21875 29.082031 33.21875 30.621094 C 33.21875 32.15625 32.953125 33.328125 32.414062 34.136719 C 31.875 34.941406 31.09375 35.347656 30.070312 35.347656 C 29.050781 35.347656 28.269531 34.941406 27.730469 34.136719 C 27.191406 33.328125 26.921875 32.15625 26.921875 30.621094 C 26.921875 29.082031 27.191406 27.910156 27.730469 27.105469 C 28.269531 26.296875 29.050781 25.890625 30.070312 25.890625 Z M 30.070312 25.890625 "/>
<path style=" stroke:none;fill-rule:nonzero;fill:rgb(0%,0%,0%);fill-opacity:1;" d="M 35.386719 33.617188 L 36.675781 33.617188 L 36.675781 35.167969 L 35.386719 35.167969 Z M 35.386719 33.617188 "/>
<path style=" stroke:none;fill-rule:nonzero;fill:rgb(0%,0%,0%);fill-opacity:1;" d="M 43.097656 30.253906 C 43.6875 30.378906 44.144531 30.644531 44.476562 31.042969 C 44.808594 31.441406 44.976562 31.933594 44.976562 32.519531 C 44.976562 33.417969 44.664062 34.113281 44.046875 34.609375 C 43.429688 35.101562 42.550781 35.347656 41.410156 35.347656 C 41.027344 35.347656 40.636719 35.308594 40.230469 35.234375 C 39.824219 35.15625 39.40625 35.042969 38.976562 34.894531 L 38.976562 33.703125 C 39.316406 33.902344 39.691406 34.054688 40.097656 34.15625 C 40.503906 34.257812 40.929688 34.308594 41.375 34.308594 C 42.148438 34.308594 42.734375 34.15625 43.140625 33.851562 C 43.546875 33.546875 43.75 33.101562 43.75 32.519531 C 43.75 31.980469 43.558594 31.5625 43.183594 31.261719 C 42.808594 30.957031 42.285156 30.804688 41.613281 30.804688 L 40.550781 30.804688 L 40.550781 29.792969 L 41.664062 29.792969 C 42.269531 29.792969 42.730469 29.671875 43.054688 29.429688 C 43.375 29.1875 43.535156 28.835938 43.535156 28.382812 C 43.535156 27.914062 43.371094 27.554688 43.039062 27.304688 C 42.707031 27.054688 42.230469 26.929688 41.613281 26.929688 C 41.273438 26.929688 40.914062 26.964844 40.527344 27.039062 C 40.140625 27.113281 39.714844 27.226562 39.25 27.378906 L 39.25 26.28125 C 39.71875 26.152344 40.15625 26.054688 40.566406 25.988281 C 40.976562 25.921875 41.359375 25.890625 41.722656 25.890625 C 42.660156 25.890625 43.398438 26.105469 43.945312 26.53125 C 44.488281 26.953125 44.761719 27.527344 44.761719 28.253906 C 44.761719 28.757812 44.617188 29.183594 44.328125 29.53125 C 44.039062 29.878906 43.628906 30.121094 43.097656 30.253906 Z M 43.097656 30.253906 "/>
<path style=" stroke:none;fill-rule:nonzero;fill:rgb(0%,0%,0%);fill-opacity:1;" d="M 48.375 34.132812 L 52.679688 34.132812 L 52.679688 35.167969 L 46.894531 35.167969 L 46.894531 34.132812 C 47.359375 33.648438 47.996094 32.996094 48.804688 32.183594 C 49.613281 31.367188 50.121094 30.839844 50.328125 30.601562 C 50.722656 30.160156 51 29.785156 51.15625 29.476562 C 51.3125 29.167969 51.390625 28.867188 51.390625 28.570312 C 51.390625 28.085938 51.222656 27.691406 50.882812 27.386719 C 50.542969 27.082031 50.097656 26.929688 49.554688 26.929688 C 49.167969 26.929688 48.757812 26.996094 48.328125 27.128906 C 47.898438 27.261719 47.441406 27.46875 46.953125 27.742188 L 46.953125 26.496094 C 47.449219 26.296875 47.914062 26.144531 48.34375 26.042969 C 48.777344 25.941406 49.171875 25.890625 49.53125 25.890625 C 50.472656 25.890625 51.226562 26.128906 51.789062 26.601562 C 52.347656 27.070312 52.628906 27.703125 52.628906 28.492188 C 52.628906 28.867188 52.558594 29.222656 52.417969 29.558594 C 52.277344 29.890625 52.023438 30.285156 51.652344 30.742188 C 51.550781 30.859375 51.226562 31.203125 50.683594 31.765625 C 50.136719 32.328125 49.367188 33.117188 48.375 34.132812 Z M 48.375 34.132812 "/>
<path style=" stroke:none;fill-rule:nonzero;fill:rgb(0%,0%,0%);fill-opacity:1;" d="M 9 104.832031 L 9 103.710938 L 18.496094 103.710938 L 18.496094 104.832031 Z M 9 104.832031 "/>
<path style=" stroke:none;fill-rule:nonzero;fill:rgb(0%,0%,0%);fill-opacity:1;" d="M 12.449219 98.710938 C 12.449219 99.3125 12.683594 99.789062 13.152344 100.136719 C 13.625 100.488281 14.269531 100.664062 15.085938 100.664062 C 15.902344 100.664062 16.546875 100.488281 17.015625 100.140625 C 17.488281 99.792969 17.722656 99.316406 17.722656 98.710938 C 17.722656 98.113281 17.488281 97.636719 17.015625 97.289062 C 16.542969 96.9375 15.898438 96.761719 15.085938 96.761719 C 14.277344 96.761719 13.632812 96.9375 13.160156 97.289062 C 12.6875 97.636719 12.449219 98.113281 12.449219 98.710938 Z M 11.496094 98.710938 C 11.496094 97.734375 11.816406 96.96875 12.449219 96.410156 C 13.085938 95.851562 13.964844 95.570312 15.085938 95.570312 C 16.203125 95.570312 17.082031 95.851562 17.71875 96.410156 C 18.355469 96.96875 18.675781 97.734375 18.675781 98.710938 C 18.675781 99.691406 18.355469 100.460938 17.71875 101.015625 C 17.082031 101.570312 16.203125 101.847656 15.085938 101.847656 C 13.964844 101.847656 13.085938 101.570312 12.449219 101.015625 C 11.816406 100.460938 11.496094 99.691406 11.496094 98.710938 Z M 11.496094 98.710938 "/>
<path style=" stroke:none;fill-rule:nonzero;fill:rgb(0%,0%,0%);fill-opacity:1;" d="M 11.863281 89.355469 L 12.925781 89.355469 C 12.761719 89.671875 12.640625 90 12.558594 90.34375 C 12.476562 90.683594 12.4375 91.039062 12.4375 91.40625 C 12.4375 91.960938 12.523438 92.378906 12.691406 92.660156 C 12.863281 92.9375 13.121094 93.078125 13.460938 93.078125 C 13.722656 93.078125 13.925781 92.976562 14.074219 92.777344 C 14.222656 92.578125 14.367188 92.175781 14.5 91.574219 L 14.585938 91.191406 C 14.757812 90.394531 14.996094 89.828125 15.308594 89.492188 C 15.621094 89.15625 16.054688 88.988281 16.609375 88.988281 C 17.246094 88.988281 17.75 89.238281 18.121094 89.742188 C 18.492188 90.242188 18.675781 90.933594 18.675781 91.8125 C 18.675781 92.179688 18.640625 92.558594 18.566406 92.957031 C 18.496094 93.355469 18.390625 93.773438 18.246094 94.210938 L 17.085938 94.210938 C 17.304688 93.796875 17.464844 93.386719 17.574219 92.984375 C 17.679688 92.582031 17.734375 92.183594 17.734375 91.789062 C 17.734375 91.257812 17.644531 90.851562 17.460938 90.570312 C 17.28125 90.285156 17.027344 90.140625 16.695312 90.140625 C 16.390625 90.140625 16.160156 90.242188 15.996094 90.449219 C 15.832031 90.652344 15.675781 91.105469 15.523438 91.800781 L 15.433594 92.191406 C 15.289062 92.886719 15.0625 93.390625 14.757812 93.699219 C 14.457031 94.007812 14.039062 94.164062 13.511719 94.164062 C 12.867188 94.164062 12.371094 93.933594 12.023438 93.480469 C 11.671875 93.023438 11.496094 92.375 11.496094 91.539062 C 11.496094 91.125 11.527344 90.734375 11.589844 90.367188 C 11.648438 90 11.742188 89.664062 11.863281 89.355469 Z M 11.863281 89.355469 "/>
<path style=" stroke:none;fill-rule:nonzero;fill:rgb(0%,0%,0%);fill-opacity:1;" d="M 11.863281 82.839844 L 12.925781 82.839844 C 12.761719 83.15625 12.640625 83.488281 12.558594 83.828125 C 12.476562 84.171875 12.4375 84.523438 12.4375 84.890625 C 12.4375 85.449219 12.523438 85.867188 12.691406 86.144531 C 12.863281 86.425781 13.121094 86.5625 13.460938 86.5625 C 13.722656 86.5625 13.925781 86.464844 14.074219 86.265625 C 14.222656 86.066406 14.367188 85.664062 14.5 85.0625 L 14.585938 84.675781 C 14.757812 83.878906 14.996094 83.3125 15.308594 82.976562 C 15.621094 82.640625 16.054688 82.472656 16.609375 82.472656 C 17.246094 82.472656 17.75 82.726562 18.121094 83.226562 C 18.492188 83.730469 18.675781 84.421875 18.675781 85.300781 C 18.675781 85.667969 18.640625 86.046875 18.566406 86.445312 C 18.496094 86.84375 18.390625 87.261719 18.246094 87.699219 L 17.085938 87.699219 C 17.304688 87.285156 17.464844 86.875 17.574219 86.472656 C 17.679688 86.070312 17.734375 85.671875 17.734375 85.273438 C 17.734375 84.746094 17.644531 84.339844 17.460938 84.054688 C 17.28125 83.769531 17.027344 83.628906 16.695312 83.628906 C 16.390625 83.628906 16.160156 83.730469 15.996094 83.9375 C 15.832031 84.140625 15.675781 84.59375 15.523438 85.289062 L 15.433594 85.679688 C 15.289062 86.375 15.0625 86.878906 14.757812 87.1875 C 14.457031 87.496094 14.039062 87.648438 13.511719 87.648438 C 12.867188 87.648438 12.371094 87.421875 12.023438 86.964844 C 11.671875 86.511719 11.496094 85.863281 11.496094 85.023438 C 11.496094 84.609375 11.527344 84.222656 11.589844 83.855469 C 11.648438 83.488281 11.742188 83.148438 11.863281 82.839844 Z M 11.863281 82.839844 "/>
<path style="fill:none;stroke-width:1.5;stroke-linecap:square;stroke-linejoin:round;stroke:rgb(12.156863%,46.666667%,70.588235%);stroke-opacity:1;stroke-miterlimit:4;" d="M 72.8125 127.33125 L 91.525 133.821875 L 102.146875 134.353125 L 123.565625 133.621875 L 127.565625 131.89375 " transform="matrix(1.25,0,0,1.25,0,0)"/>
<path style="fill:none;stroke-width:1.5;stroke-linecap:butt;stroke-linejoin:round;stroke:rgb(74.901961%,0%,74.901961%);stroke-opacity:1;stroke-dasharray:5.55,2.4;stroke-miterlimit:4;" d="M 107.78125 14.628125 L 127.29375 91.865625 L 138.728125 121.36875 L 146.878125 130.725 L 153.19375 134.83125 L 158.471875 131.703125 L 162.7875 135.634375 L 166.621875 126.85625 L 169.975 135.665625 L 172.915625 134.775 L 175.6625 133.38125 L 178.090625 131.434375 L 180.3625 132.234375 L 182.50625 126.6375 L 184.428125 133.384375 " transform="matrix(1.25,0,0,1.25,0,0)"/>
<g clip-path="url(#clip10)" clip-rule="nonzero">
<path style="fill:none;stroke-width:1.5;stroke-linecap:butt;stroke-linejoin:round;stroke:rgb(0%,50.196078%,0%);stroke-opacity:1;stroke-dasharray:9.6,2.4,1.5,2.4;stroke-miterlimit:4;" d="M 10.753125 13.378125 L 30.0125 87.1625 L 44.8375 117.115625 L 52.540625 125.975 L 58.428125 132.35625 L 64.4625 126.103125 L 68.44375 129.921875 L 72.453125 129.625 L 76.34375 135 L 78.9875 131.5625 L 81.4375 133.184375 L 84.275 132.090625 L 86.325 132.45625 L 88.24375 120.946875 L 90.55 131.45625 " transform="matrix(1.25,0,0,1.25,0,0)"/>
</g>
<g clip-path="url(#clip11)" clip-rule="nonzero">
<path style="fill:none;stroke-width:1.5;stroke-linecap:butt;stroke-linejoin:round;stroke:rgb(100%,0%,0%);stroke-opacity:1;stroke-dasharray:1.5,2.475;stroke-miterlimit:4;" d="M 48.646875 31.771875 L 68.40625 99.63125 L 79.721875 124.55 L 87.771875 130.9625 L 93.971875 135.74375 L 99.10625 131.05 L 103.415625 129.73125 L 107.28125 134.40625 L 110.590625 129.2 L 113.55 136.921875 L 116.225 135.565625 L 118.678125 134.75 L 120.925 132.225 L 123.00625 133.928125 L 124.946875 135.803125 " transform="matrix(1.25,0,0,1.25,0,0)"/>
</g>
<path style="fill:none;stroke-width:0.8;stroke-linecap:square;stroke-linejoin:miter;stroke:rgb(0%,0%,0%);stroke-opacity:1;stroke-miterlimit:4;" d="M 50.14375 143.1 L 50.14375 7.2 " transform="matrix(1.25,0,0,1.25,0,0)"/>
<path style="fill:none;stroke-width:0.8;stroke-linecap:square;stroke-linejoin:miter;stroke:rgb(0%,0%,0%);stroke-opacity:1;stroke-miterlimit:4;" d="M 245.44375 143.1 L 245.44375 7.2 " transform="matrix(1.25,0,0,1.25,0,0)"/>
<path style="fill:none;stroke-width:0.8;stroke-linecap:square;stroke-linejoin:miter;stroke:rgb(0%,0%,0%);stroke-opacity:1;stroke-miterlimit:4;" d="M 50.14375 143.1 L 245.44375 143.1 " transform="matrix(1.25,0,0,1.25,0,0)"/>
<path style="fill:none;stroke-width:0.8;stroke-linecap:square;stroke-linejoin:miter;stroke:rgb(0%,0%,0%);stroke-opacity:1;stroke-miterlimit:4;" d="M 50.14375 7.2 L 245.44375 7.2 " transform="matrix(1.25,0,0,1.25,0,0)"/>
<use xlink:href="#surface6" mask="url(#mask0)"/>
<path style="fill:none;stroke-width:1.5;stroke-linecap:square;stroke-linejoin:round;stroke:rgb(12.156863%,46.666667%,70.588235%);stroke-opacity:1;stroke-miterlimit:4;" d="M 130.175 20.3 L 150.175 20.3 " transform="matrix(1.25,0,0,1.25,0,0)"/>
<path style=" stroke:none;fill-rule:nonzero;fill:rgb(0%,0%,0%);fill-opacity:1;" d="M 203.394531 26.25 C 203.394531 25.4375 203.226562 24.804688 202.890625 24.359375 C 202.558594 23.910156 202.085938 23.6875 201.480469 23.6875 C 200.878906 23.6875 200.410156 23.910156 200.074219 24.359375 C 199.738281 24.804688 199.570312 25.4375 199.570312 26.25 C 199.570312 27.058594 199.738281 27.6875 200.074219 28.136719 C 200.410156 28.585938 200.878906 28.808594 201.480469 28.808594 C 202.085938 28.808594 202.558594 28.585938 202.890625 28.136719 C 203.226562 27.6875 203.394531 27.058594 203.394531 26.25 Z M 204.519531 28.902344 C 204.519531 30.0625 204.261719 30.929688 203.742188 31.496094 C 203.226562 32.0625 202.4375 32.347656 201.371094 32.347656 C 200.976562 32.347656 200.605469 32.320312 200.253906 32.261719 C 199.902344 32.203125 199.5625 32.109375 199.234375 31.988281 L 199.234375 30.898438 C 199.5625 31.074219 199.890625 31.207031 200.210938 31.292969 C 200.53125 31.378906 200.859375 31.421875 201.191406 31.421875 C 201.929688 31.421875 202.480469 31.226562 202.847656 30.84375 C 203.214844 30.460938 203.394531 29.878906 203.394531 29.101562 L 203.394531 28.546875 C 203.164062 28.949219 202.867188 29.25 202.503906 29.449219 C 202.144531 29.648438 201.710938 29.75 201.203125 29.75 C 200.367188 29.75 199.691406 29.429688 199.179688 28.792969 C 198.667969 28.152344 198.410156 27.304688 198.410156 26.25 C 198.410156 25.191406 198.667969 24.34375 199.179688 23.707031 C 199.691406 23.066406 200.367188 22.75 201.203125 22.75 C 201.710938 22.75 202.144531 22.847656 202.503906 23.046875 C 202.867188 23.246094 203.164062 23.546875 203.394531 23.949219 L 203.394531 22.914062 L 204.519531 22.914062 Z M 204.519531 28.902344 "/>
<path style=" stroke:none;fill-rule:nonzero;fill:rgb(0%,0%,0%);fill-opacity:1;" d="M 211.332031 23.949219 L 211.332031 20.25 L 212.453125 20.25 L 212.453125 29.75 L 211.332031 29.75 L 211.332031 28.722656 C 211.09375 29.128906 210.796875 29.429688 210.4375 29.628906 C 210.078125 29.828125 209.644531 29.925781 209.140625 29.925781 C 208.3125 29.925781 207.640625 29.597656 207.121094 28.9375 C 206.605469 28.277344 206.34375 27.410156 206.34375 26.335938 C 206.34375 25.261719 206.605469 24.394531 207.121094 23.738281 C 207.640625 23.078125 208.3125 22.75 209.140625 22.75 C 209.644531 22.75 210.078125 22.847656 210.4375 23.046875 C 210.796875 23.242188 211.09375 23.542969 211.332031 23.949219 Z M 207.503906 26.335938 C 207.503906 27.160156 207.675781 27.808594 208.015625 28.28125 C 208.355469 28.75 208.820312 28.984375 209.414062 28.984375 C 210.007812 28.984375 210.476562 28.75 210.816406 28.28125 C 211.160156 27.808594 211.332031 27.160156 211.332031 26.335938 C 211.332031 25.511719 211.160156 24.863281 210.816406 24.394531 C 210.476562 23.921875 210.007812 23.6875 209.414062 23.6875 C 208.820312 23.6875 208.355469 23.921875 208.015625 24.394531 C 207.675781 24.863281 207.503906 25.511719 207.503906 26.335938 Z M 207.503906 26.335938 "/>
<path style="fill:none;stroke-width:1.5;stroke-linecap:butt;stroke-linejoin:round;stroke:rgb(74.901961%,0%,74.901961%);stroke-opacity:1;stroke-dasharray:5.55,2.4;stroke-miterlimit:4;" d="M 130.175 34.978125 L 150.175 34.978125 " transform="matrix(1.25,0,0,1.25,0,0)"/>
<path style=" stroke:none;fill-rule:nonzero;fill:rgb(0%,0%,0%);fill-opacity:1;" d="M 203.253906 41.460938 L 203.253906 42.523438 C 202.9375 42.359375 202.609375 42.238281 202.265625 42.160156 C 201.925781 42.078125 201.570312 42.035156 201.203125 42.035156 C 200.648438 42.035156 200.230469 42.121094 199.949219 42.292969 C 199.671875 42.460938 199.53125 42.71875 199.53125 43.0625 C 199.53125 43.320312 199.632812 43.527344 199.832031 43.675781 C 200.03125 43.824219 200.433594 43.964844 201.035156 44.097656 L 201.417969 44.183594 C 202.214844 44.355469 202.78125 44.59375 203.117188 44.90625 C 203.453125 45.21875 203.621094 45.652344 203.621094 46.210938 C 203.621094 46.84375 203.371094 47.347656 202.867188 47.71875 C 202.367188 48.089844 201.675781 48.273438 200.796875 48.273438 C 200.429688 48.273438 200.050781 48.238281 199.652344 48.167969 C 199.253906 48.09375 198.835938 47.988281 198.398438 47.847656 L 198.398438 46.6875 C 198.8125 46.902344 199.222656 47.0625 199.625 47.171875 C 200.027344 47.277344 200.425781 47.332031 200.820312 47.332031 C 201.351562 47.332031 201.757812 47.242188 202.039062 47.0625 C 202.324219 46.878906 202.46875 46.625 202.46875 46.296875 C 202.46875 45.992188 202.367188 45.757812 202.160156 45.59375 C 201.957031 45.429688 201.503906 45.273438 200.808594 45.125 L 200.417969 45.03125 C 199.722656 44.886719 199.21875 44.660156 198.910156 44.359375 C 198.601562 44.054688 198.445312 43.636719 198.445312 43.109375 C 198.445312 42.464844 198.675781 41.96875 199.128906 41.621094 C 199.585938 41.269531 200.234375 41.097656 201.070312 41.097656 C 201.484375 41.097656 201.875 41.125 202.242188 41.1875 C 202.609375 41.246094 202.945312 41.339844 203.253906 41.460938 Z M 203.253906 41.460938 "/>
<path style=" stroke:none;fill-rule:nonzero;fill:rgb(0%,0%,0%);fill-opacity:1;" d="M 209.910156 44.597656 C 209.910156 43.785156 209.742188 43.152344 209.40625 42.707031 C 209.070312 42.257812 208.601562 42.035156 207.992188 42.035156 C 207.390625 42.035156 206.921875 42.257812 206.585938 42.707031 C 206.25 43.152344 206.082031 43.785156 206.082031 44.597656 C 206.082031 45.40625 206.25 46.035156 206.585938 46.484375 C 206.921875 46.933594 207.390625 47.15625 207.992188 47.15625 C 208.601562 47.15625 209.070312 46.933594 209.40625 46.484375 C 209.742188 46.035156 209.910156 45.40625 209.910156 44.597656 Z M 211.03125 47.25 C 211.03125 48.410156 210.773438 49.277344 210.257812 49.84375 C 209.742188 50.410156 208.949219 50.695312 207.882812 50.695312 C 207.488281 50.695312 207.117188 50.667969 206.765625 50.609375 C 206.417969 50.550781 206.078125 50.457031 205.746094 50.335938 L 205.746094 49.246094 C 206.078125 49.421875 206.402344 49.554688 206.722656 49.640625 C 207.046875 49.726562 207.371094 49.769531 207.707031 49.769531 C 208.441406 49.769531 208.996094 49.574219 209.359375 49.191406 C 209.726562 48.808594 209.910156 48.226562 209.910156 47.449219 L 209.910156 46.894531 C 209.675781 47.296875 209.378906 47.597656 209.019531 47.796875 C 208.65625 47.996094 208.222656 48.097656 207.71875 48.097656 C 206.878906 48.097656 206.207031 47.777344 205.691406 47.140625 C 205.179688 46.5 204.921875 45.652344 204.921875 44.597656 C 204.921875 43.539062 205.179688 42.691406 205.691406 42.054688 C 206.207031 41.414062 206.878906 41.097656 207.71875 41.097656 C 208.222656 41.097656 208.65625 41.195312 209.019531 41.394531 C 209.378906 41.59375 209.675781 41.894531 209.910156 42.296875 L 209.910156 41.261719 L 211.03125 41.261719 Z M 211.03125 47.25 "/>
<path style=" stroke:none;fill-rule:nonzero;fill:rgb(0%,0%,0%);fill-opacity:1;" d="M 217.84375 42.296875 L 217.84375 38.597656 L 218.964844 38.597656 L 218.964844 48.097656 L 217.84375 48.097656 L 217.84375 47.070312 C 217.609375 47.476562 217.308594 47.777344 216.949219 47.976562 C 216.589844 48.175781 216.15625 48.273438 215.652344 48.273438 C 214.828125 48.273438 214.152344 47.945312 213.632812 47.285156 C 213.117188 46.625 212.855469 45.757812 212.855469 44.683594 C 212.855469 43.609375 213.117188 42.742188 213.632812 42.085938 C 214.152344 41.425781 214.828125 41.097656 215.652344 41.097656 C 216.15625 41.097656 216.589844 41.195312 216.949219 41.394531 C 217.308594 41.589844 217.609375 41.890625 217.84375 42.296875 Z M 214.015625 44.683594 C 214.015625 45.507812 214.1875 46.15625 214.527344 46.628906 C 214.867188 47.097656 215.332031 47.332031 215.925781 47.332031 C 216.519531 47.332031 216.988281 47.097656 217.328125 46.628906 C 217.671875 46.15625 217.84375 45.507812 217.84375 44.683594 C 217.84375 43.859375 217.671875 43.210938 217.328125 42.742188 C 216.988281 42.269531 216.519531 42.035156 215.925781 42.035156 C 215.332031 42.035156 214.867188 42.269531 214.527344 42.742188 C 214.1875 43.210938 214.015625 43.859375 214.015625 44.683594 Z M 214.015625 44.683594 "/>
<path style="fill:none;stroke-width:1.5;stroke-linecap:butt;stroke-linejoin:round;stroke:rgb(0%,50.196078%,0%);stroke-opacity:1;stroke-dasharray:9.6,2.4,1.5,2.4;stroke-miterlimit:4;" d="M 130.175 49.65625 L 150.175 49.65625 " transform="matrix(1.25,0,0,1.25,0,0)"/>
<path style=" stroke:none;fill-rule:nonzero;fill:rgb(0%,0%,0%);fill-opacity:1;" d="M 203.804688 63.03125 C 203.804688 62.207031 203.636719 61.558594 203.296875 61.089844 C 202.957031 60.617188 202.488281 60.382812 201.894531 60.382812 C 201.300781 60.382812 200.832031 60.617188 200.492188 61.089844 C 200.152344 61.558594 199.984375 62.207031 199.984375 63.03125 C 199.984375 63.855469 200.152344 64.503906 200.492188 64.976562 C 200.832031 65.445312 201.300781 65.679688 201.894531 65.679688 C 202.488281 65.679688 202.957031 65.445312 203.296875 64.976562 C 203.636719 64.503906 203.804688 63.855469 203.804688 63.03125 Z M 199.984375 60.644531 C 200.222656 60.238281 200.519531 59.9375 200.878906 59.742188 C 201.238281 59.542969 201.667969 59.445312 202.167969 59.445312 C 203 59.445312 203.675781 59.773438 204.191406 60.433594 C 204.710938 61.089844 204.972656 61.957031 204.972656 63.03125 C 204.972656 64.105469 204.710938 64.972656 204.191406 65.632812 C 203.675781 66.292969 203 66.621094 202.167969 66.621094 C 201.667969 66.621094 201.238281 66.523438 200.878906 66.324219 C 200.519531 66.125 200.222656 65.824219 199.984375 65.417969 L 199.984375 66.445312 L 198.855469 66.445312 L 198.855469 56.945312 L 199.984375 56.945312 Z M 199.984375 60.644531 "/>
<path style=" stroke:none;fill-rule:nonzero;fill:rgb(0%,0%,0%);fill-opacity:1;" d="M 209.941406 63.007812 C 209.03125 63.007812 208.402344 63.113281 208.054688 63.320312 C 207.703125 63.527344 207.527344 63.878906 207.527344 64.382812 C 207.527344 64.78125 207.660156 65.097656 207.921875 65.332031 C 208.1875 65.5625 208.542969 65.679688 208.992188 65.679688 C 209.617188 65.679688 210.117188 65.460938 210.492188 65.019531 C 210.871094 64.578125 211.058594 63.988281 211.058594 63.257812 L 211.058594 63.007812 Z M 212.179688 62.542969 L 212.179688 66.445312 L 211.058594 66.445312 L 211.058594 65.40625 C 210.800781 65.820312 210.480469 66.125 210.097656 66.324219 C 209.714844 66.523438 209.246094 66.621094 208.695312 66.621094 C 207.996094 66.621094 207.4375 66.425781 207.023438 66.03125 C 206.613281 65.636719 206.40625 65.113281 206.40625 64.453125 C 206.40625 63.683594 206.664062 63.105469 207.175781 62.714844 C 207.691406 62.324219 208.460938 62.128906 209.480469 62.128906 L 211.058594 62.128906 L 211.058594 62.019531 C 211.058594 61.5 210.886719 61.101562 210.546875 60.820312 C 210.207031 60.535156 209.730469 60.394531 209.117188 60.394531 C 208.726562 60.394531 208.34375 60.441406 207.972656 60.535156 C 207.605469 60.628906 207.25 60.769531 206.90625 60.957031 L 206.90625 59.917969 C 207.316406 59.757812 207.714844 59.640625 208.101562 59.5625 C 208.488281 59.484375 208.867188 59.445312 209.230469 59.445312 C 210.222656 59.445312 210.960938 59.699219 211.449219 60.214844 C 211.9375 60.726562 212.179688 61.5 212.179688 62.542969 Z M 212.179688 62.542969 "/>
<path style=" stroke:none;fill-rule:nonzero;fill:rgb(0%,0%,0%);fill-opacity:1;" d="M 215.605469 57.667969 L 215.605469 59.609375 L 217.917969 59.609375 L 217.917969 60.480469 L 215.605469 60.480469 L 215.605469 64.191406 C 215.605469 64.75 215.679688 65.105469 215.832031 65.265625 C 215.984375 65.425781 216.296875 65.503906 216.765625 65.503906 L 217.917969 65.503906 L 217.917969 66.445312 L 216.765625 66.445312 C 215.898438 66.445312 215.300781 66.28125 214.96875 65.960938 C 214.640625 65.636719 214.476562 65.046875 214.476562 64.191406 L 214.476562 60.480469 L 213.652344 60.480469 L 213.652344 59.609375 L 214.476562 59.609375 L 214.476562 57.667969 Z M 215.605469 57.667969 "/>
<path style=" stroke:none;fill-rule:nonzero;fill:rgb(0%,0%,0%);fill-opacity:1;" d="M 224.3125 59.871094 L 224.3125 60.921875 C 223.996094 60.746094 223.679688 60.613281 223.359375 60.527344 C 223.039062 60.4375 222.71875 60.394531 222.390625 60.394531 C 221.664062 60.394531 221.097656 60.625 220.691406 61.089844 C 220.289062 61.550781 220.089844 62.195312 220.089844 63.03125 C 220.089844 63.867188 220.289062 64.515625 220.691406 64.976562 C 221.097656 65.4375 221.664062 65.667969 222.390625 65.667969 C 222.71875 65.667969 223.039062 65.625 223.359375 65.539062 C 223.679688 65.449219 223.996094 65.320312 224.3125 65.144531 L 224.3125 66.183594 C 224 66.328125 223.675781 66.4375 223.339844 66.511719 C 223.003906 66.585938 222.648438 66.621094 222.269531 66.621094 C 221.238281 66.621094 220.421875 66.296875 219.8125 65.652344 C 219.207031 65.003906 218.90625 64.128906 218.90625 63.03125 C 218.90625 61.917969 219.210938 61.039062 219.824219 60.402344 C 220.4375 59.761719 221.277344 59.445312 222.34375 59.445312 C 222.6875 59.445312 223.027344 59.480469 223.355469 59.550781 C 223.683594 59.621094 224.003906 59.726562 224.3125 59.871094 Z M 224.3125 59.871094 "/>
<path style=" stroke:none;fill-rule:nonzero;fill:rgb(0%,0%,0%);fill-opacity:1;" d="M 231.949219 62.316406 L 231.949219 66.445312 L 230.828125 66.445312 L 230.828125 62.355469 C 230.828125 61.707031 230.699219 61.222656 230.449219 60.902344 C 230.195312 60.582031 229.816406 60.421875 229.3125 60.421875 C 228.707031 60.421875 228.226562 60.613281 227.878906 61 C 227.527344 61.386719 227.351562 61.914062 227.351562 62.582031 L 227.351562 66.445312 L 226.222656 66.445312 L 226.222656 56.945312 L 227.351562 56.945312 L 227.351562 60.671875 C 227.621094 60.257812 227.9375 59.953125 228.300781 59.75 C 228.667969 59.546875 229.085938 59.445312 229.5625 59.445312 C 230.347656 59.445312 230.941406 59.6875 231.34375 60.171875 C 231.75 60.65625 231.949219 61.371094 231.949219 62.316406 Z M 231.949219 62.316406 "/>
<path style=" stroke:none;fill-rule:nonzero;fill:rgb(0%,0%,0%);fill-opacity:1;" d="M 242.519531 59.808594 L 242.519531 60.871094 C 242.203125 60.707031 241.875 60.585938 241.53125 60.507812 C 241.191406 60.425781 240.835938 60.382812 240.46875 60.382812 C 239.910156 60.382812 239.492188 60.46875 239.214844 60.640625 C 238.9375 60.808594 238.796875 61.066406 238.796875 61.410156 C 238.796875 61.667969 238.898438 61.875 239.097656 62.023438 C 239.296875 62.171875 239.695312 62.3125 240.300781 62.445312 L 240.683594 62.53125 C 241.480469 62.703125 242.046875 62.941406 242.382812 63.253906 C 242.71875 63.566406 242.886719 64 242.886719 64.558594 C 242.886719 65.191406 242.636719 65.695312 242.132812 66.066406 C 241.628906 66.4375 240.941406 66.621094 240.0625 66.621094 C 239.695312 66.621094 239.3125 66.585938 238.917969 66.515625 C 238.519531 66.441406 238.101562 66.335938 237.664062 66.195312 L 237.664062 65.035156 C 238.078125 65.25 238.488281 65.410156 238.890625 65.519531 C 239.292969 65.625 239.691406 65.679688 240.085938 65.679688 C 240.613281 65.679688 241.019531 65.589844 241.304688 65.410156 C 241.589844 65.226562 241.734375 64.972656 241.734375 64.644531 C 241.734375 64.339844 241.628906 64.105469 241.425781 63.941406 C 241.21875 63.777344 240.769531 63.621094 240.074219 63.472656 L 239.683594 63.378906 C 238.988281 63.234375 238.484375 63.007812 238.175781 62.707031 C 237.867188 62.402344 237.710938 61.984375 237.710938 61.457031 C 237.710938 60.8125 237.9375 60.316406 238.394531 59.96875 C 238.851562 59.617188 239.496094 59.445312 240.335938 59.445312 C 240.75 59.445312 241.140625 59.472656 241.507812 59.535156 C 241.875 59.59375 242.210938 59.6875 242.519531 59.808594 Z M 242.519531 59.808594 "/>
<path style=" stroke:none;fill-rule:nonzero;fill:rgb(0%,0%,0%);fill-opacity:1;" d="M 244.675781 59.609375 L 245.796875 59.609375 L 245.796875 66.445312 L 244.675781 66.445312 Z M 244.675781 56.945312 L 245.796875 56.945312 L 245.796875 58.371094 L 244.675781 58.371094 Z M 244.675781 56.945312 "/>
<path style=" stroke:none;fill-rule:nonzero;fill:rgb(0%,0%,0%);fill-opacity:1;" d="M 247.660156 59.609375 L 252.992188 59.609375 L 252.992188 60.632812 L 248.769531 65.546875 L 252.992188 65.546875 L 252.992188 66.445312 L 247.507812 66.445312 L 247.507812 65.417969 L 251.730469 60.503906 L 247.660156 60.503906 Z M 247.660156 59.609375 "/>
<path style=" stroke:none;fill-rule:nonzero;fill:rgb(0%,0%,0%);fill-opacity:1;" d="M 260.554688 62.746094 L 260.554688 63.292969 L 255.390625 63.292969 C 255.441406 64.066406 255.675781 64.65625 256.089844 65.0625 C 256.507812 65.464844 257.089844 65.667969 257.832031 65.667969 C 258.265625 65.667969 258.683594 65.617188 259.085938 65.511719 C 259.492188 65.40625 259.894531 65.246094 260.292969 65.035156 L 260.292969 66.097656 C 259.890625 66.265625 259.476562 66.398438 259.054688 66.488281 C 258.632812 66.578125 258.203125 66.621094 257.765625 66.621094 C 256.675781 66.621094 255.8125 66.304688 255.175781 65.671875 C 254.539062 65.035156 254.21875 64.175781 254.21875 63.09375 C 254.21875 61.972656 254.523438 61.085938 255.125 60.429688 C 255.730469 59.773438 256.546875 59.445312 257.570312 59.445312 C 258.492188 59.445312 259.21875 59.738281 259.753906 60.332031 C 260.289062 60.921875 260.554688 61.726562 260.554688 62.746094 Z M 259.433594 62.414062 C 259.425781 61.800781 259.253906 61.3125 258.917969 60.945312 C 258.582031 60.578125 258.136719 60.394531 257.582031 60.394531 C 256.957031 60.394531 256.457031 60.570312 256.078125 60.925781 C 255.703125 61.28125 255.488281 61.777344 255.429688 62.421875 Z M 259.433594 62.414062 "/>
<path style=" stroke:none;fill-rule:nonzero;fill:rgb(0%,0%,0%);fill-opacity:1;" d="M 262.546875 60.769531 L 270.371094 60.769531 L 270.371094 61.792969 L 262.546875 61.792969 Z M 262.546875 63.257812 L 270.371094 63.257812 L 270.371094 64.296875 L 262.546875 64.296875 Z M 262.546875 63.257812 "/>
<path style=" stroke:none;fill-rule:nonzero;fill:rgb(0%,0%,0%);fill-opacity:1;" d="M 273.246094 65.40625 L 275.257812 65.40625 L 275.257812 58.453125 L 273.066406 58.894531 L 273.066406 57.769531 L 275.246094 57.332031 L 276.480469 57.332031 L 276.480469 65.40625 L 278.492188 65.40625 L 278.492188 66.445312 L 273.246094 66.445312 Z M 273.246094 65.40625 "/>
<path style=" stroke:none;fill-rule:nonzero;fill:rgb(0%,0%,0%);fill-opacity:1;" d="M 283.621094 58.144531 C 282.988281 58.144531 282.507812 58.457031 282.1875 59.082031 C 281.871094 59.703125 281.710938 60.644531 281.710938 61.898438 C 281.710938 63.144531 281.871094 64.082031 282.1875 64.707031 C 282.507812 65.332031 282.988281 65.644531 283.621094 65.644531 C 284.261719 65.644531 284.738281 65.332031 285.058594 64.707031 C 285.378906 64.082031 285.539062 63.144531 285.539062 61.898438 C 285.539062 60.644531 285.378906 59.703125 285.058594 59.082031 C 284.738281 58.457031 284.261719 58.144531 283.621094 58.144531 Z M 283.621094 57.167969 C 284.644531 57.167969 285.421875 57.570312 285.960938 58.378906 C 286.5 59.1875 286.769531 60.359375 286.769531 61.898438 C 286.769531 63.429688 286.5 64.601562 285.960938 65.410156 C 285.421875 66.21875 284.644531 66.621094 283.621094 66.621094 C 282.601562 66.621094 281.820312 66.21875 281.28125 65.410156 C 280.742188 64.601562 280.472656 63.429688 280.472656 61.898438 C 280.472656 60.359375 280.742188 59.1875 281.28125 58.378906 C 281.820312 57.570312 282.601562 57.167969 283.621094 57.167969 Z M 283.621094 57.167969 "/>
<path style=" stroke:none;fill-rule:nonzero;fill:rgb(0%,0%,0%);fill-opacity:1;" d="M 291.574219 58.144531 C 290.941406 58.144531 290.460938 58.457031 290.140625 59.082031 C 289.824219 59.703125 289.664062 60.644531 289.664062 61.898438 C 289.664062 63.144531 289.824219 64.082031 290.140625 64.707031 C 290.460938 65.332031 290.941406 65.644531 291.574219 65.644531 C 292.214844 65.644531 292.691406 65.332031 293.011719 64.707031 C 293.332031 64.082031 293.492188 63.144531 293.492188 61.898438 C 293.492188 60.644531 293.332031 59.703125 293.011719 59.082031 C 292.691406 58.457031 292.214844 58.144531 291.574219 58.144531 Z M 291.574219 57.167969 C 292.597656 57.167969 293.375 57.570312 293.914062 58.378906 C 294.453125 59.1875 294.722656 60.359375 294.722656 61.898438 C 294.722656 63.429688 294.453125 64.601562 293.914062 65.410156 C 293.375 66.21875 292.597656 66.621094 291.574219 66.621094 C 290.554688 66.621094 289.773438 66.21875 289.234375 65.410156 C 288.695312 64.601562 288.425781 63.429688 288.425781 61.898438 C 288.425781 60.359375 288.695312 59.1875 289.234375 58.378906 C 289.773438 57.570312 290.554688 57.167969 291.574219 57.167969 Z M 291.574219 57.167969 "/>
<path style="fill:none;stroke-width:1.5;stroke-linecap:butt;stroke-linejoin:round;stroke:rgb(100%,0%,0%);stroke-opacity:1;stroke-dasharray:1.5,2.475;stroke-miterlimit:4;" d="M 130.175 64.334375 L 150.175 64.334375 " transform="matrix(1.25,0,0,1.25,0,0)"/>
<path style=" stroke:none;fill-rule:nonzero;fill:rgb(0%,0%,0%);fill-opacity:1;" d="M 203.804688 81.378906 C 203.804688 80.554688 203.636719 79.90625 203.296875 79.4375 C 202.957031 78.964844 202.488281 78.730469 201.894531 78.730469 C 201.300781 78.730469 200.832031 78.964844 200.492188 79.4375 C 200.152344 79.90625 199.984375 80.554688 199.984375 81.378906 C 199.984375 82.203125 200.152344 82.851562 200.492188 83.324219 C 200.832031 83.792969 201.300781 84.027344 201.894531 84.027344 C 202.488281 84.027344 202.957031 83.792969 203.296875 83.324219 C 203.636719 82.851562 203.804688 82.203125 203.804688 81.378906 Z M 199.984375 78.992188 C 200.222656 78.585938 200.519531 78.285156 200.878906 78.089844 C 201.238281 77.890625 201.667969 77.792969 202.167969 77.792969 C 203 77.792969 203.675781 78.121094 204.191406 78.78125 C 204.710938 79.4375 204.972656 80.304688 204.972656 81.378906 C 204.972656 82.453125 204.710938 83.320312 204.191406 83.980469 C 203.675781 84.640625 203 84.96875 202.167969 84.96875 C 201.667969 84.96875 201.238281 84.871094 200.878906 84.671875 C 200.519531 84.472656 200.222656 84.171875 199.984375 83.765625 L 199.984375 84.792969 L 198.855469 84.792969 L 198.855469 75.292969 L 199.984375 75.292969 Z M 199.984375 78.992188 "/>
<path style=" stroke:none;fill-rule:nonzero;fill:rgb(0%,0%,0%);fill-opacity:1;" d="M 209.941406 81.355469 C 209.03125 81.355469 208.402344 81.460938 208.054688 81.667969 C 207.703125 81.875 207.527344 82.226562 207.527344 82.730469 C 207.527344 83.128906 207.660156 83.445312 207.921875 83.679688 C 208.1875 83.910156 208.542969 84.027344 208.992188 84.027344 C 209.617188 84.027344 210.117188 83.808594 210.492188 83.367188 C 210.871094 82.925781 211.058594 82.335938 211.058594 81.605469 L 211.058594 81.355469 Z M 212.179688 80.890625 L 212.179688 84.792969 L 211.058594 84.792969 L 211.058594 83.753906 C 210.800781 84.167969 210.480469 84.472656 210.097656 84.671875 C 209.714844 84.871094 209.246094 84.96875 208.695312 84.96875 C 207.996094 84.96875 207.4375 84.773438 207.023438 84.378906 C 206.613281 83.984375 206.40625 83.460938 206.40625 82.800781 C 206.40625 82.03125 206.664062 81.453125 207.175781 81.0625 C 207.691406 80.671875 208.460938 80.476562 209.480469 80.476562 L 211.058594 80.476562 L 211.058594 80.367188 C 211.058594 79.847656 210.886719 79.449219 210.546875 79.167969 C 210.207031 78.882812 209.730469 78.742188 209.117188 78.742188 C 208.726562 78.742188 208.34375 78.789062 207.972656 78.882812 C 207.605469 78.976562 207.25 79.117188 206.90625 79.304688 L 206.90625 78.265625 C 207.316406 78.105469 207.714844 77.988281 208.101562 77.910156 C 208.488281 77.832031 208.867188 77.792969 209.230469 77.792969 C 210.222656 77.792969 210.960938 78.046875 211.449219 78.5625 C 211.9375 79.074219 212.179688 79.847656 212.179688 80.890625 Z M 212.179688 80.890625 "/>
<path style=" stroke:none;fill-rule:nonzero;fill:rgb(0%,0%,0%);fill-opacity:1;" d="M 215.605469 76.015625 L 215.605469 77.957031 L 217.917969 77.957031 L 217.917969 78.828125 L 215.605469 78.828125 L 215.605469 82.539062 C 215.605469 83.097656 215.679688 83.453125 215.832031 83.613281 C 215.984375 83.773438 216.296875 83.851562 216.765625 83.851562 L 217.917969 83.851562 L 217.917969 84.792969 L 216.765625 84.792969 C 215.898438 84.792969 215.300781 84.628906 214.96875 84.308594 C 214.640625 83.984375 214.476562 83.394531 214.476562 82.539062 L 214.476562 78.828125 L 213.652344 78.828125 L 213.652344 77.957031 L 214.476562 77.957031 L 214.476562 76.015625 Z M 215.605469 76.015625 "/>
<path style=" stroke:none;fill-rule:nonzero;fill:rgb(0%,0%,0%);fill-opacity:1;" d="M 224.3125 78.21875 L 224.3125 79.269531 C 223.996094 79.09375 223.679688 78.960938 223.359375 78.875 C 223.039062 78.785156 222.71875 78.742188 222.390625 78.742188 C 221.664062 78.742188 221.097656 78.972656 220.691406 79.4375 C 220.289062 79.898438 220.089844 80.542969 220.089844 81.378906 C 220.089844 82.214844 220.289062 82.863281 220.691406 83.324219 C 221.097656 83.785156 221.664062 84.015625 222.390625 84.015625 C 222.71875 84.015625 223.039062 83.972656 223.359375 83.886719 C 223.679688 83.796875 223.996094 83.667969 224.3125 83.492188 L 224.3125 84.53125 C 224 84.675781 223.675781 84.785156 223.339844 84.859375 C 223.003906 84.933594 222.648438 84.96875 222.269531 84.96875 C 221.238281 84.96875 220.421875 84.644531 219.8125 84 C 219.207031 83.351562 218.90625 82.476562 218.90625 81.378906 C 218.90625 80.265625 219.210938 79.386719 219.824219 78.75 C 220.4375 78.109375 221.277344 77.792969 222.34375 77.792969 C 222.6875 77.792969 223.027344 77.828125 223.355469 77.898438 C 223.683594 77.96875 224.003906 78.074219 224.3125 78.21875 Z M 224.3125 78.21875 "/>
<path style=" stroke:none;fill-rule:nonzero;fill:rgb(0%,0%,0%);fill-opacity:1;" d="M 231.949219 80.664062 L 231.949219 84.792969 L 230.828125 84.792969 L 230.828125 80.703125 C 230.828125 80.054688 230.699219 79.570312 230.449219 79.25 C 230.195312 78.929688 229.816406 78.769531 229.3125 78.769531 C 228.707031 78.769531 228.226562 78.960938 227.878906 79.347656 C 227.527344 79.734375 227.351562 80.261719 227.351562 80.929688 L 227.351562 84.792969 L 226.222656 84.792969 L 226.222656 75.292969 L 227.351562 75.292969 L 227.351562 79.019531 C 227.621094 78.605469 227.9375 78.300781 228.300781 78.097656 C 228.667969 77.894531 229.085938 77.792969 229.5625 77.792969 C 230.347656 77.792969 230.941406 78.035156 231.34375 78.519531 C 231.75 79.003906 231.949219 79.71875 231.949219 80.664062 Z M 231.949219 80.664062 "/>
<path style=" stroke:none;fill-rule:nonzero;fill:rgb(0%,0%,0%);fill-opacity:1;" d="M 242.519531 78.15625 L 242.519531 79.21875 C 242.203125 79.054688 241.875 78.933594 241.53125 78.855469 C 241.191406 78.773438 240.835938 78.730469 240.46875 78.730469 C 239.910156 78.730469 239.492188 78.816406 239.214844 78.988281 C 238.9375 79.15625 238.796875 79.414062 238.796875 79.757812 C 238.796875 80.015625 238.898438 80.222656 239.097656 80.371094 C 239.296875 80.519531 239.695312 80.660156 240.300781 80.792969 L 240.683594 80.878906 C 241.480469 81.050781 242.046875 81.289062 242.382812 81.601562 C 242.71875 81.914062 242.886719 82.347656 242.886719 82.90625 C 242.886719 83.539062 242.636719 84.042969 242.132812 84.414062 C 241.628906 84.785156 240.941406 84.96875 240.0625 84.96875 C 239.695312 84.96875 239.3125 84.933594 238.917969 84.863281 C 238.519531 84.789062 238.101562 84.683594 237.664062 84.542969 L 237.664062 83.382812 C 238.078125 83.597656 238.488281 83.757812 238.890625 83.867188 C 239.292969 83.972656 239.691406 84.027344 240.085938 84.027344 C 240.613281 84.027344 241.019531 83.9375 241.304688 83.757812 C 241.589844 83.574219 241.734375 83.320312 241.734375 82.992188 C 241.734375 82.6875 241.628906 82.453125 241.425781 82.289062 C 241.21875 82.125 240.769531 81.96875 240.074219 81.820312 L 239.683594 81.726562 C 238.988281 81.582031 238.484375 81.355469 238.175781 81.054688 C 237.867188 80.75 237.710938 80.332031 237.710938 79.804688 C 237.710938 79.160156 237.9375 78.664062 238.394531 78.316406 C 238.851562 77.964844 239.496094 77.792969 240.335938 77.792969 C 240.75 77.792969 241.140625 77.820312 241.507812 77.882812 C 241.875 77.941406 242.210938 78.035156 242.519531 78.15625 Z M 242.519531 78.15625 "/>
<path style=" stroke:none;fill-rule:nonzero;fill:rgb(0%,0%,0%);fill-opacity:1;" d="M 244.675781 77.957031 L 245.796875 77.957031 L 245.796875 84.792969 L 244.675781 84.792969 Z M 244.675781 75.292969 L 245.796875 75.292969 L 245.796875 76.71875 L 244.675781 76.71875 Z M 244.675781 75.292969 "/>
<path style=" stroke:none;fill-rule:nonzero;fill:rgb(0%,0%,0%);fill-opacity:1;" d="M 247.660156 77.957031 L 252.992188 77.957031 L 252.992188 78.980469 L 248.769531 83.894531 L 252.992188 83.894531 L 252.992188 84.792969 L 247.507812 84.792969 L 247.507812 83.765625 L 251.730469 78.851562 L 247.660156 78.851562 Z M 247.660156 77.957031 "/>
<path style=" stroke:none;fill-rule:nonzero;fill:rgb(0%,0%,0%);fill-opacity:1;" d="M 260.554688 81.09375 L 260.554688 81.640625 L 255.390625 81.640625 C 255.441406 82.414062 255.675781 83.003906 256.089844 83.410156 C 256.507812 83.8125 257.089844 84.015625 257.832031 84.015625 C 258.265625 84.015625 258.683594 83.964844 259.085938 83.859375 C 259.492188 83.753906 259.894531 83.59375 260.292969 83.382812 L 260.292969 84.445312 C 259.890625 84.613281 259.476562 84.746094 259.054688 84.835938 C 258.632812 84.925781 258.203125 84.96875 257.765625 84.96875 C 256.675781 84.96875 255.8125 84.652344 255.175781 84.019531 C 254.539062 83.382812 254.21875 82.523438 254.21875 81.441406 C 254.21875 80.320312 254.523438 79.433594 255.125 78.777344 C 255.730469 78.121094 256.546875 77.792969 257.570312 77.792969 C 258.492188 77.792969 259.21875 78.085938 259.753906 78.679688 C 260.289062 79.269531 260.554688 80.074219 260.554688 81.09375 Z M 259.433594 80.761719 C 259.425781 80.148438 259.253906 79.660156 258.917969 79.292969 C 258.582031 78.925781 258.136719 78.742188 257.582031 78.742188 C 256.957031 78.742188 256.457031 78.917969 256.078125 79.273438 C 255.703125 79.628906 255.488281 80.125 255.429688 80.769531 Z M 259.433594 80.761719 "/>
<path style=" stroke:none;fill-rule:nonzero;fill:rgb(0%,0%,0%);fill-opacity:1;" d="M 262.546875 79.117188 L 270.371094 79.117188 L 270.371094 80.140625 L 262.546875 80.140625 Z M 262.546875 81.605469 L 270.371094 81.605469 L 270.371094 82.644531 L 262.546875 82.644531 Z M 262.546875 81.605469 "/>
<path style=" stroke:none;fill-rule:nonzero;fill:rgb(0%,0%,0%);fill-opacity:1;" d="M 273.246094 83.753906 L 275.257812 83.753906 L 275.257812 76.800781 L 273.066406 77.242188 L 273.066406 76.117188 L 275.246094 75.679688 L 276.480469 75.679688 L 276.480469 83.753906 L 278.492188 83.753906 L 278.492188 84.792969 L 273.246094 84.792969 Z M 273.246094 83.753906 "/>
<path style=" stroke:none;fill-rule:nonzero;fill:rgb(0%,0%,0%);fill-opacity:1;" d="M 283.621094 76.492188 C 282.988281 76.492188 282.507812 76.804688 282.1875 77.429688 C 281.871094 78.050781 281.710938 78.992188 281.710938 80.246094 C 281.710938 81.492188 281.871094 82.429688 282.1875 83.054688 C 282.507812 83.679688 282.988281 83.992188 283.621094 83.992188 C 284.261719 83.992188 284.738281 83.679688 285.058594 83.054688 C 285.378906 82.429688 285.539062 81.492188 285.539062 80.246094 C 285.539062 78.992188 285.378906 78.050781 285.058594 77.429688 C 284.738281 76.804688 284.261719 76.492188 283.621094 76.492188 Z M 283.621094 75.515625 C 284.644531 75.515625 285.421875 75.917969 285.960938 76.726562 C 286.5 77.535156 286.769531 78.707031 286.769531 80.246094 C 286.769531 81.777344 286.5 82.949219 285.960938 83.757812 C 285.421875 84.566406 284.644531 84.96875 283.621094 84.96875 C 282.601562 84.96875 281.820312 84.566406 281.28125 83.757812 C 280.742188 82.949219 280.472656 81.777344 280.472656 80.246094 C 280.472656 78.707031 280.742188 77.535156 281.28125 76.726562 C 281.820312 75.917969 282.601562 75.515625 283.621094 75.515625 Z M 283.621094 75.515625 "/>
</g>
</svg>
